<svg width="200" height="28" viewBox="0 0 200 28" fill="none" xmlns="http://www.w3.org/2000/svg">
<path d="M6.78835 27H0.856534L9.89489 0.818181H17.0284L26.054 27H20.1222L13.5639 6.80114H13.3594L6.78835 27ZM6.41761 16.7088H20.429V21.0298H6.41761V16.7088ZM42.8107 8.34801C42.7085 7.31676 42.2695 6.51562 41.494 5.9446C40.7184 5.37358 39.6658 5.08807 38.3363 5.08807C37.4329 5.08807 36.6701 5.21591 36.0479 5.47159C35.4258 5.71875 34.9485 6.06392 34.6161 6.5071C34.2923 6.95028 34.1303 7.45312 34.1303 8.01562C34.1133 8.48438 34.2113 8.89347 34.4244 9.2429C34.646 9.59233 34.9485 9.89489 35.332 10.1506C35.7156 10.3977 36.1587 10.6151 36.6616 10.8026C37.1644 10.9815 37.7013 11.1349 38.2724 11.2628L40.6246 11.8253C41.7667 12.081 42.815 12.4219 43.7695 12.848C44.7241 13.2741 45.5508 13.7983 46.2496 14.4205C46.9485 15.0426 47.4897 15.7756 47.8732 16.6193C48.2653 17.4631 48.4656 18.4304 48.4741 19.5213C48.4656 21.1236 48.0565 22.5128 47.2468 23.6889C46.4457 24.8565 45.2866 25.7642 43.7695 26.4119C42.261 27.0511 40.4414 27.3707 38.3107 27.3707C36.1971 27.3707 34.3562 27.0469 32.788 26.3991C31.2283 25.7514 30.0096 24.7926 29.1317 23.5227C28.2624 22.2443 27.8065 20.6634 27.7638 18.7798H33.1204C33.18 19.6577 33.4315 20.3906 33.8746 20.9787C34.3263 21.5582 34.9272 21.9972 35.6772 22.2955C36.4357 22.5852 37.2923 22.7301 38.2468 22.7301C39.1843 22.7301 39.9982 22.5937 40.6886 22.321C41.3874 22.0483 41.9286 21.669 42.3121 21.1832C42.6957 20.6974 42.8874 20.1392 42.8874 19.5085C42.8874 18.9205 42.7127 18.4261 42.3633 18.0256C42.0224 17.625 41.5195 17.2841 40.8548 17.0028C40.1985 16.7216 39.3931 16.4659 38.4386 16.2358L35.5877 15.5199C33.3803 14.983 31.6374 14.1435 30.359 13.0014C29.0806 11.8594 28.4457 10.321 28.4542 8.38636C28.4457 6.80114 28.8675 5.41619 29.7198 4.23153C30.5806 3.04687 31.761 2.12216 33.261 1.45739C34.761 0.792613 36.4656 0.460226 38.3746 0.460226C40.3178 0.460226 42.0138 0.792613 43.4627 1.45739C44.9201 2.12216 46.0536 3.04687 46.8633 4.23153C47.6729 5.41619 48.0906 6.78835 48.1161 8.34801H42.8107ZM51.2003 5.3821V0.818181H72.7031V5.3821H64.6875V27H59.2159V5.3821H51.2003ZM99.1087 13.9091C99.1087 16.7642 98.5675 19.1932 97.4851 21.196C96.4112 23.1989 94.9453 24.7287 93.0874 25.7855C91.2379 26.8338 89.1584 27.358 86.8487 27.358C84.522 27.358 82.4339 26.8295 80.5845 25.7727C78.7351 24.7159 77.2734 23.1861 76.1996 21.1832C75.1257 19.1804 74.5888 16.7557 74.5888 13.9091C74.5888 11.054 75.1257 8.625 76.1996 6.62216C77.2734 4.61932 78.7351 3.09375 80.5845 2.04545C82.4339 0.988636 84.522 0.460226 86.8487 0.460226C89.1584 0.460226 91.2379 0.988636 93.0874 2.04545C94.9453 3.09375 96.4112 4.61932 97.4851 6.62216C98.5675 8.625 99.1087 11.054 99.1087 13.9091ZM93.4965 13.9091C93.4965 12.0597 93.2195 10.5 92.6655 9.23011C92.12 7.96023 91.3487 6.99716 90.3516 6.34091C89.3544 5.68466 88.1868 5.35653 86.8487 5.35653C85.5107 5.35653 84.343 5.68466 83.3459 6.34091C82.3487 6.99716 81.5732 7.96023 81.0192 9.23011C80.4737 10.5 80.201 12.0597 80.201 13.9091C80.201 15.7585 80.4737 17.3182 81.0192 18.5881C81.5732 19.858 82.3487 20.821 83.3459 21.4773C84.343 22.1335 85.5107 22.4616 86.8487 22.4616C88.1868 22.4616 89.3544 22.1335 90.3516 21.4773C91.3487 20.821 92.12 19.858 92.6655 18.5881C93.2195 17.3182 93.4965 15.7585 93.4965 13.9091ZM125.108 0.818181V27H120.327L108.936 10.5213H108.745V27H103.209V0.818181H108.067L119.368 17.2841H119.598V0.818181H125.108ZM143.885 8.34801C143.783 7.31676 143.344 6.51562 142.568 5.9446C141.793 5.37358 140.74 5.08807 139.411 5.08807C138.507 5.08807 137.744 5.21591 137.122 5.47159C136.5 5.71875 136.023 6.06392 135.69 6.5071C135.366 6.95028 135.205 7.45312 135.205 8.01562C135.188 8.48438 135.286 8.89347 135.499 9.2429C135.72 9.59233 136.023 9.89489 136.406 10.1506C136.79 10.3977 137.233 10.6151 137.736 10.8026C138.239 10.9815 138.776 11.1349 139.347 11.2628L141.699 11.8253C142.841 12.081 143.889 12.4219 144.844 12.848C145.798 13.2741 146.625 13.7983 147.324 14.4205C148.023 15.0426 148.564 15.7756 148.947 16.6193C149.339 17.4631 149.54 18.4304 149.548 19.5213C149.54 21.1236 149.131 22.5128 148.321 23.6889C147.52 24.8565 146.361 25.7642 144.844 26.4119C143.335 27.0511 141.516 27.3707 139.385 27.3707C137.271 27.3707 135.43 27.0469 133.862 26.3991C132.303 25.7514 131.084 24.7926 130.206 23.5227C129.337 22.2443 128.881 20.6634 128.838 18.7798H134.195C134.254 19.6577 134.506 20.3906 134.949 20.9787C135.401 21.5582 136.001 21.9972 136.751 22.2955C137.51 22.5852 138.366 22.7301 139.321 22.7301C140.259 22.7301 141.072 22.5937 141.763 22.321C142.462 22.0483 143.003 21.669 143.386 21.1832C143.77 20.6974 143.962 20.1392 143.962 19.5085C143.962 18.9205 143.787 18.4261 143.438 18.0256C143.097 17.625 142.594 17.2841 141.929 17.0028C141.273 16.7216 140.467 16.4659 139.513 16.2358L136.662 15.5199C134.455 14.983 132.712 14.1435 131.433 13.0014C130.155 11.8594 129.52 10.321 129.528 8.38636C129.52 6.80114 129.942 5.41619 130.794 4.23153C131.655 3.04687 132.835 2.12216 134.335 1.45739C135.835 0.792613 137.54 0.460226 139.449 0.460226C141.392 0.460226 143.088 0.792613 144.537 1.45739C145.994 2.12216 147.128 3.04687 147.938 4.23153C148.747 5.41619 149.165 6.78835 149.19 8.34801H143.885ZM151.738 0.818181H157.938L163.908 12.0938H164.164L170.134 0.818181H176.334L166.784 17.7443V27H161.287V17.7443L151.738 0.818181ZM193.561 8.34801C193.458 7.31676 193.02 6.51562 192.244 5.9446C191.468 5.37358 190.416 5.08807 189.086 5.08807C188.183 5.08807 187.42 5.21591 186.798 5.47159C186.176 5.71875 185.699 6.06392 185.366 6.5071C185.042 6.95028 184.88 7.45312 184.88 8.01562C184.863 8.48438 184.961 8.89347 185.174 9.2429C185.396 9.59233 185.699 9.89489 186.082 10.1506C186.466 10.3977 186.909 10.6151 187.412 10.8026C187.914 10.9815 188.451 11.1349 189.022 11.2628L191.375 11.8253C192.517 12.081 193.565 12.4219 194.52 12.848C195.474 13.2741 196.301 13.7983 197 14.4205C197.699 15.0426 198.24 15.7756 198.623 16.6193C199.015 17.4631 199.216 18.4304 199.224 19.5213C199.216 21.1236 198.806 22.5128 197.997 23.6889C197.196 24.8565 196.037 25.7642 194.52 26.4119C193.011 27.0511 191.191 27.3707 189.061 27.3707C186.947 27.3707 185.106 27.0469 183.538 26.3991C181.978 25.7514 180.76 24.7926 179.882 23.5227C179.012 22.2443 178.556 20.6634 178.514 18.7798H183.87C183.93 19.6577 184.181 20.3906 184.625 20.9787C185.076 21.5582 185.677 21.9972 186.427 22.2955C187.186 22.5852 188.042 22.7301 188.997 22.7301C189.934 22.7301 190.748 22.5937 191.439 22.321C192.137 22.0483 192.679 21.669 193.062 21.1832C193.446 20.6974 193.637 20.1392 193.637 19.5085C193.637 18.9205 193.463 18.4261 193.113 18.0256C192.772 17.625 192.27 17.2841 191.605 17.0028C190.949 16.7216 190.143 16.4659 189.189 16.2358L186.338 15.5199C184.13 14.983 182.387 14.1435 181.109 13.0014C179.831 11.8594 179.196 10.321 179.204 8.38636C179.196 6.80114 179.618 5.41619 180.47 4.23153C181.331 3.04687 182.511 2.12216 184.011 1.45739C185.511 0.792613 187.216 0.460226 189.125 0.460226C191.068 0.460226 192.764 0.792613 194.213 1.45739C195.67 2.12216 196.804 3.04687 197.613 4.23153C198.423 5.41619 198.841 6.78835 198.866 8.34801H193.561Z" fill="#2F2F2F"/>
</svg>
