<svg width="2716" height="2778" viewBox="0 0 2716 2778" fill="none" xmlns="http://www.w3.org/2000/svg">
<path d="M833.122 2179.34C358.032 2220.34 311.748 1625.8 372.219 1314.49C432.69 1003.19 648.293 726.091 1123.38 685.09C1598.47 644.089 2713.12 806.386 2652.65 1117.69" stroke="#C9C9C9" stroke-width="7"/>
<path d="M868.139 2126.67C424.723 2164.93 381.525 1610.02 437.964 1319.47C494.404 1028.93 695.633 770.299 1139.05 732.031C1582.47 693.764 2622.8 845.24 2566.36 1135.79" stroke="#C9C9C9" stroke-width="7"/>
<path d="M903.157 2073.99C491.413 2109.52 451.3 1594.25 503.708 1324.45C556.117 1054.66 742.972 814.506 1154.72 778.971C1566.46 743.437 2532.49 884.094 2480.08 1153.89" stroke="#C9C9C9" stroke-width="7"/>
<path d="M938.175 2021.31C558.104 2054.11 521.077 1578.48 569.453 1329.43C617.83 1080.39 790.312 858.713 1170.38 825.912C1550.46 793.111 2442.17 922.949 2393.8 1171.99" stroke="#C9C9C9" stroke-width="7"/>
<path d="M973.193 1968.64C624.794 1998.71 590.853 1562.7 635.198 1334.42C679.543 1106.13 837.652 902.92 1186.05 872.853C1534.45 842.785 2351.86 961.803 2307.51 1190.09" stroke="#C9C9C9" stroke-width="7"/>
<path d="M1008.21 1915.96C691.484 1943.29 660.629 1546.93 700.943 1339.39C741.257 1131.86 884.992 947.127 1201.72 919.793C1518.44 892.459 2261.54 1000.66 2221.23 1208.19" stroke="#C9C9C9" stroke-width="7"/>
<path d="M1043.23 1863.28C758.175 1887.89 730.405 1531.16 766.688 1344.38C802.97 1157.59 932.332 991.334 1217.39 966.733C1502.44 942.133 2171.23 1039.51 2134.95 1226.29" stroke="#C9C9C9" stroke-width="7"/>
<path d="M1078.25 1810.61C824.865 1832.48 800.181 1515.38 832.432 1349.36C864.683 1183.33 979.671 1035.54 1233.05 1013.67C1486.43 991.807 2080.91 1078.37 2048.66 1244.39" stroke="#C9C9C9" stroke-width="7"/>
<path d="M1113.26 1757.93C891.556 1777.07 869.957 1499.61 898.177 1354.34C926.397 1209.06 1027.01 1079.75 1248.72 1060.61C1470.43 1041.48 1990.6 1117.22 1962.38 1262.49" stroke="#C9C9C9" stroke-width="7"/>
<path d="M1148.28 1705.26C958.246 1721.66 939.733 1483.84 963.921 1359.32C988.11 1234.79 1074.35 1123.95 1264.39 1107.55C1454.42 1091.15 1900.28 1156.07 1876.09 1280.59" stroke="#C9C9C9" stroke-width="7"/>
<path d="M1183.3 1652.58C1024.94 1666.25 1009.51 1468.06 1029.67 1364.3C1049.82 1260.53 1121.69 1168.16 1280.05 1154.5C1438.42 1140.83 1809.97 1194.93 1789.81 1298.69" stroke="#C9C9C9" stroke-width="7"/>
<path d="M1218.32 1599.9C1091.63 1610.84 1079.29 1452.29 1095.41 1369.28C1111.54 1286.26 1169.03 1212.37 1295.72 1201.44C1422.41 1190.5 1719.65 1233.78 1703.53 1316.8" stroke="#C9C9C9" stroke-width="7"/>
<path d="M1253.34 1547.23C1158.32 1555.43 1149.06 1436.52 1161.16 1374.26C1173.25 1312 1216.37 1256.58 1311.39 1248.38C1406.41 1240.18 1629.34 1272.64 1617.24 1334.9" stroke="#C9C9C9" stroke-width="7"/>
<path d="M1288.35 1494.55C1225.01 1500.02 1218.84 1420.74 1226.9 1379.24C1234.96 1337.73 1263.71 1300.78 1327.06 1295.32C1390.4 1289.85 1539.02 1311.49 1530.96 1353" stroke="#C9C9C9" stroke-width="7"/>
<path d="M1323.37 1441.87C1291.7 1444.61 1288.61 1404.97 1292.65 1384.22C1296.68 1363.46 1311.05 1344.99 1342.72 1342.26C1374.4 1339.52 1448.71 1350.34 1444.67 1371.1" stroke="#C9C9C9" stroke-width="7"/>
</svg>
