<svg width="82" height="65" viewBox="0 0 82 65" fill="none" xmlns="http://www.w3.org/2000/svg">
<path d="M43.2857 32.8573C43.2857 41.3546 40.8575 49.005 36.9827 54.5047C33.106 60.0071 27.8445 63.2859 22.1429 63.2859C16.4412 63.2859 11.1797 60.0071 7.30297 54.5047C3.4282 49.005 1 41.3546 1 32.8573C1 24.3599 3.4282 16.7096 7.30297 11.2099C11.1797 5.70746 16.4412 2.42871 22.1429 2.42871C27.8445 2.42871 33.106 5.70746 36.9827 11.2099C40.8575 16.7096 43.2857 24.3599 43.2857 32.8573Z" fill="white" stroke="black" stroke-width="2"/>
<path d="M81.0001 31.4286C81.0001 39.9259 78.5719 47.5763 74.6971 53.076C70.8204 58.5784 65.5588 61.8571 59.8572 61.8571C54.1556 61.8571 48.894 58.5784 45.0173 53.076C41.1426 47.5763 38.7144 39.9259 38.7144 31.4286C38.7144 22.9312 41.1426 15.2808 45.0173 9.78117C48.894 4.27875 54.1556 1 59.8572 1C65.5588 1 70.8204 4.27875 74.6971 9.78117C78.5719 15.2808 81.0001 22.9312 81.0001 31.4286Z" fill="white" stroke="black" stroke-width="2"/>
<ellipse cx="25.5714" cy="45.1429" rx="8.57143" ry="12.1429" fill="black"/>
<ellipse cx="63.2858" cy="45.1429" rx="8.57143" ry="12.1429" fill="black"/>
</svg>
