<svg width="100%" height="100%" viewBox="0 0 1606 1235" fill="none" xmlns="http://www.w3.org/2000/svg">
<path d="M973.867 14.7942C966.933 16.5275 960.4 21.3275 958.8 25.8608C957.867 28.3942 957.333 43.8609 957.333 67.0609V104.261H828.667H700V218.261V332.261H594H488V480.928V629.594H362H236V656.928V684.261H160.667H85.3333V620.261C85.3333 557.194 85.3333 556.261 82.6667 556.261C80 556.261 80 557.194 80 622.928V689.594H158H236V716.261V742.928H362H488V908.261V1073.59L703.067 1073.33L918 1072.93L918.667 986.261L919.333 899.594L928.4 898.661C977.733 893.861 1017.47 853.328 1023.33 801.861L1024.27 793.594H1076.8H1129.33V561.594C1129.33 330.528 1129.33 329.594 1126.67 329.594C1124 329.594 1124 330.528 1124 558.928V788.261H1074.13H1024.13L1023.33 780.528C1017.87 733.861 985.6 697.061 940.267 685.994C927.733 682.928 902.267 683.061 890 686.128C847.333 697.061 814.933 732.528 808.8 774.794L807.2 786.261H757.2H707.333L706.933 756.661L706.667 726.928L711.067 725.061C717.733 722.394 721.333 717.061 721.333 709.994C721.333 698.928 714.933 692.261 704.4 692.261C693.733 692.261 685.467 701.861 687.333 711.994C688.267 717.194 695.733 725.594 699.2 725.594C701.067 725.594 701.333 729.328 701.333 758.928V792.261H754.667H808V799.194C808 807.994 812.133 825.461 816.533 835.594C825.067 854.661 841.867 873.594 859.867 884.261C871.467 891.194 888.533 897.194 899.333 898.261C903.733 898.794 908.667 899.328 910.4 899.728L913.333 900.261L913.067 940.661L912.667 980.928L703.067 981.328L493.333 981.594V862.261V742.928H528.667H564V686.261V629.594H528.667H493.333V514.261V398.928H706H918.667V365.594V332.261H812H705.333V220.928V109.594H831.333H957.333V121.861C957.333 131.061 958 135.461 959.733 138.928C966.4 152.394 996.4 153.594 1006.4 140.928C1008.93 137.728 1009.33 135.594 1009.33 123.461V109.594H1066.67H1124V144.261C1124 177.994 1124.13 178.928 1126.67 178.928C1129.33 178.928 1129.33 177.994 1129.33 141.594V104.261H1069.33H1009.33V66.2609C1009.33 23.0609 1009.2 22.2608 999.733 17.4608C993.6 14.2608 980.8 13.0609 973.867 14.7942ZM997.067 22.1276C1006.4 26.9276 1005.07 34.1275 994 38.2609C982.4 42.7942 965.2 38.2608 964.267 30.5275C963.2 21.0608 984.533 15.5942 997.067 22.1276ZM967.067 41.8608C968.667 42.7942 973.333 44.1275 977.333 44.9275L984.667 46.5275L985.067 95.3275L985.333 144.261H980.4C974 144.261 966.533 140.528 964.4 136.261C963.2 133.728 962.667 120.928 962.667 86.5275C962.667 61.0609 963.067 40.2609 963.467 40.2609C963.867 40.2609 965.467 40.9275 967.067 41.8608ZM913.333 365.594V393.594H703.333H493.333V365.594V337.594H703.333H913.333V365.594ZM280 686.261C280 701.994 279.867 702.928 277.333 702.928C274.8 702.928 274.667 701.994 274.667 686.261C274.667 670.528 274.8 669.594 277.333 669.594C279.867 669.594 280 670.528 280 686.261ZM362.667 686.261C362.667 701.994 362.533 702.928 360 702.928C357.467 702.928 357.333 701.994 357.333 686.261C357.333 670.528 357.467 669.594 360 669.594C362.533 669.594 362.667 670.528 362.667 686.261ZM404 686.261C404 701.994 403.867 702.928 401.333 702.928C398.8 702.928 398.667 701.994 398.667 686.261C398.667 670.528 398.8 669.594 401.333 669.594C403.867 669.594 404 670.528 404 686.261ZM488 686.261V702.928H484.667H481.333V686.261V669.594H484.667H488V686.261ZM529.333 686.261V702.928H526H522.667V686.261V669.594H526H529.333V686.261ZM326.4 672.794C330.667 675.061 334.667 681.461 334.667 686.128C334.667 688.261 333.467 691.861 332 694.261C324 707.194 304 701.594 304 686.394C304 674.528 316.267 667.061 326.4 672.794ZM450.667 672.928C455.2 675.194 458.667 681.194 458.667 686.261C458.667 701.594 437.067 707.194 430 693.594C422.933 679.861 436.933 665.861 450.667 672.928ZM935.2 755.061C952.267 787.328 953.467 790.128 952 793.328C949.2 799.728 915.733 861.728 915.333 861.328C915.2 861.061 906.533 845.061 896.133 825.728L877.2 790.528L890.8 765.061C911.333 726.394 914.8 720.261 915.733 720.261C916.267 720.261 924.933 735.994 935.2 755.061ZM913.067 1027.19L912.667 1067.59L703.067 1067.99L493.333 1068.26V1027.59V986.928H703.333H913.333L913.067 1027.19Z" fill="black" class="svg-elem-1"></path>
<path d="M517.046 351.728C516.646 352.528 518.912 355.994 522.379 359.461L528.512 365.594L522.246 371.861C516.912 377.328 516.246 378.394 517.846 380.261C519.446 382.128 520.246 381.728 526.112 375.994L532.512 369.728L538.912 375.994C544.646 381.728 545.579 382.128 547.179 380.261C548.646 378.394 548.112 377.328 542.779 371.861L536.512 365.461L542.512 359.594C549.046 353.194 549.579 351.861 546.379 350.661C545.046 350.128 542.246 351.861 538.379 355.728L532.512 361.461L526.779 355.861C520.912 350.128 518.646 349.194 517.046 351.728Z" fill="black" class="svg-elem-2"></path>
<path d="M865.169 734.394C865.169 735.728 887.836 777.994 889.303 779.594C890.103 780.394 890.503 774.394 890.236 763.594L889.836 746.261L877.569 739.861C870.769 736.394 865.169 733.861 865.169 734.394Z" fill="black" class="svg-elem-3"></path>
<path d="M907.569 739.994L895.836 746.261V763.594V780.928L900.903 771.594C916.236 743.461 921.169 733.594 920.236 733.594C919.703 733.594 913.969 736.528 907.569 739.994Z" fill="black" class="svg-elem-4"></path>
<path d="M693.825 1004.08C683.692 1009.41 679.292 1017.28 680.092 1028.74C680.759 1037.54 685.159 1044.34 693.159 1048.74C700.092 1052.61 712.625 1051.54 719.025 1046.74C728.625 1039.41 731.692 1026.74 726.625 1015.81C725.292 1012.88 723.025 1009.41 721.692 1008.21C714.625 1002.08 701.425 1000.08 693.825 1004.08Z" fill="black" class="svg-elem-5"></path>
<path d="M297.836 107.061C296.636 112.528 289.436 120.394 277.836 128.928C272.769 132.794 264.903 138.928 260.503 142.661L252.503 149.594H230.903H209.169V274.928V400.261H297.169H385.169V274.928V149.594H358.503H331.969L331.169 144.528C328.369 126.661 320.236 113.328 307.303 105.461C301.303 101.861 298.903 102.261 297.836 107.061ZM246.503 155.594C246.503 155.861 244.103 159.328 241.169 163.194C233.836 172.928 231.303 181.061 232.369 191.594C234.103 208.261 240.636 222.128 253.303 235.728C264.369 247.728 266.503 252.528 266.503 265.861C266.503 279.594 263.969 290.528 257.703 304.261C255.036 310.128 252.636 314.928 252.369 314.928C252.236 314.928 249.169 313.728 245.569 312.128C242.103 310.528 233.836 307.994 227.169 306.261L215.169 303.194L214.769 229.061L214.503 154.928H230.503C239.303 154.928 246.503 155.194 246.503 155.594ZM379.836 252.261C379.836 342.794 379.703 349.594 377.569 349.594C376.369 349.594 365.569 347.994 353.569 346.128L331.836 342.528V325.728C331.836 316.528 331.436 304.928 331.036 300.128L330.103 291.328L335.436 290.528C341.303 289.594 345.436 285.861 348.503 278.661C351.036 272.261 351.036 252.794 348.503 238.261C345.836 223.994 345.836 224.528 351.836 222.128C355.169 220.794 357.169 219.061 357.169 217.728C357.169 213.728 352.103 195.194 349.169 188.794C346.503 182.661 346.503 182.661 340.503 183.194C334.503 183.594 334.503 183.594 332.636 178.128C331.436 174.528 331.036 169.594 331.436 163.728L332.236 154.928H355.969H379.836V252.261ZM328.369 182.261C329.036 184.794 328.103 185.328 318.903 188.128C305.169 192.128 289.703 199.594 287.169 203.461C285.303 206.261 285.436 207.194 288.636 214.394C294.369 227.594 299.569 234.794 304.369 235.994C309.303 237.328 319.303 235.328 331.703 230.394C336.503 228.528 340.503 227.194 340.769 227.461C342.236 228.794 345.169 251.861 345.169 261.328C345.169 279.328 340.103 286.794 329.036 285.061C316.503 283.061 305.969 273.594 291.436 251.728L282.636 238.528L273.836 238.128C263.303 237.594 262.503 237.194 262.503 232.394C262.503 227.994 265.303 225.194 272.369 222.261C277.303 220.128 277.436 219.994 275.036 217.461C269.703 211.594 273.703 202.928 285.169 195.861C291.969 191.594 325.703 177.728 326.636 178.794C327.169 179.194 327.969 180.794 328.369 182.261ZM288.636 258.394C298.769 274.128 308.636 283.994 318.369 288.528L324.769 291.461L325.703 301.328C326.103 306.794 326.503 318.128 326.503 326.528C326.503 341.461 326.503 341.594 323.569 340.928C321.836 340.661 313.303 338.794 304.503 336.794C295.703 334.928 284.769 331.994 280.236 330.261C271.703 327.194 256.769 318.928 257.569 317.594C257.703 317.194 259.836 312.928 262.236 307.861C269.569 292.261 270.769 286.394 271.436 264.528L272.103 244.261H275.703C278.903 244.261 280.636 246.261 288.636 258.394Z" fill="black" class="svg-elem-6"></path>
<path d="M1054.45 197.733C1054.05 198.533 1053.92 222.8 1054.05 251.333L1054.45 303.333L1123.52 303.733L1192.45 304V250V196H1123.78C1069.92 196 1054.85 196.4 1054.45 197.733ZM1105.65 224.533C1106.98 226.133 1104.72 228.4 1093.52 237.6C1085.92 243.733 1079.65 249.2 1079.65 250C1079.52 250.667 1084.05 254.933 1089.65 259.333C1095.25 263.733 1101.65 268.667 1103.78 270.4C1107.12 273.067 1107.38 273.733 1105.65 275.333C1104.05 276.933 1101.52 275.333 1087.25 264.133C1078.18 256.933 1070.85 250.533 1070.98 249.867C1071.25 248.933 1102.98 222.667 1103.92 222.667C1104.05 222.667 1104.85 223.467 1105.65 224.533ZM1160.18 236C1168.98 242.933 1176.32 249.067 1176.32 249.6C1176.45 250.267 1168.85 256.667 1159.65 264.133C1146.98 274.133 1142.45 277.067 1141.65 275.733C1140.98 274.8 1140.45 273.6 1140.45 273.2C1140.45 272.8 1146.45 267.733 1153.78 262C1161.25 256.267 1167.52 251.2 1167.78 250.667C1168.18 250 1162.58 244.933 1155.38 239.333C1148.32 233.6 1141.92 228.533 1141.38 228C1140.18 226.933 1141.65 222.4 1142.98 222.933C1143.52 223.2 1151.25 229.067 1160.18 236Z" fill="black" class="svg-elem-7"></path>
<path d="M32.3694 345.861C16.9027 354.928 3.16937 363.061 1.96937 364.128C-0.030632 365.728 -0.163965 369.728 0.102701 400.794L0.502701 435.594L28.5027 451.861C43.9694 460.928 57.5694 468.528 58.7694 468.928C60.1027 469.461 72.1027 463.194 90.7694 452.528L120.503 435.194L120.769 399.461L121.036 363.594L92.636 347.328C77.036 338.394 63.436 330.661 62.3694 330.261C61.3027 329.861 47.836 336.928 32.3694 345.861ZM87.436 351.194C101.569 359.328 112.769 366.394 112.236 366.928C111.703 367.461 100.103 374.261 86.636 382.128C68.636 392.528 61.436 396.128 59.836 395.328C54.636 392.794 9.3027 366.394 9.56937 365.994C10.236 365.461 60.5027 336.261 61.036 336.261C61.3027 336.261 73.1694 342.928 87.436 351.194ZM37.5694 389.994L58.5027 402.128V431.861C58.5027 448.261 58.236 461.594 57.836 461.594C57.436 461.594 45.436 454.794 31.036 446.528L4.9027 431.594L5.7027 421.728C6.1027 416.261 6.5027 402.928 6.5027 391.994V371.994L11.5694 374.928C14.236 376.528 25.9694 383.328 37.5694 389.994Z" fill="black" class="svg-elem-8"></path>
<path d="M1417.67 354.315C1413.8 358.448 1414.73 364.981 1419.8 369.781L1424.33 373.915L1423.67 390.048C1423 408.581 1424.47 415.515 1429.4 416.715C1431.13 417.115 1433.67 416.848 1435.13 416.048C1438.33 414.315 1439.4 416.315 1439.4 423.248C1439.4 427.781 1439.27 427.781 1420.33 436.981C1406.87 443.515 1400.07 447.781 1397 451.115C1389.8 459.381 1386.6 474.581 1385.13 506.848L1384.33 527.915H1348.73H1313L1322.73 552.315C1332.2 576.315 1332.33 576.981 1331.8 586.715C1331.27 595.115 1331.67 597.381 1334.33 602.448C1338.2 610.048 1345.4 614.048 1379.93 628.181L1405.4 638.448L1359.8 638.581H1314.07V721.915V805.248L1459.8 804.981L1605.4 804.581L1605.8 752.581C1606.07 723.915 1605.8 686.581 1605.4 669.648L1604.47 638.581L1554.33 638.315L1504.2 637.915L1530.07 626.181C1567.8 608.981 1578.07 601.381 1581.53 587.515C1585.13 572.715 1564.2 551.915 1549.93 555.915C1547.67 556.581 1542.07 559.248 1537.4 561.915L1529 566.581L1528.2 558.315C1527.8 553.648 1527.13 543.915 1526.73 536.581C1525.4 515.381 1522.07 481.381 1520.07 470.981C1515.93 449.248 1509 443.248 1476.6 433.248C1471.67 431.781 1467.13 429.781 1466.33 428.848C1465.67 428.048 1464.2 422.715 1463.27 417.248C1461.8 408.181 1461.93 406.848 1464.07 402.581C1467.13 396.715 1468.33 378.181 1466.2 371.515C1464.2 365.515 1460.6 363.248 1449.13 360.448C1444.2 359.248 1437.53 356.848 1434.47 355.115C1427.8 351.248 1420.73 350.981 1417.67 354.315ZM1447.8 378.848C1449.27 379.648 1450.07 381.515 1450.07 384.448C1450.07 387.781 1450.73 389.115 1452.73 389.648C1455 390.181 1455.4 391.515 1455.53 398.181C1455.53 402.448 1456.6 411.648 1457.93 418.448C1460.33 430.848 1462.33 434.315 1467.8 436.315C1470.33 437.248 1467.27 441.515 1461.27 444.981C1454.33 449.115 1446.33 448.315 1439.67 442.981C1433.4 437.915 1433.13 436.581 1438.07 434.581C1440.33 433.648 1442.73 431.781 1443.4 430.448C1445.13 427.248 1445.13 418.581 1443.27 413.381C1441.93 409.648 1441.13 409.115 1438.2 409.648C1436.33 409.915 1433.8 410.581 1432.6 411.115C1429.67 412.448 1428.73 408.581 1428.73 393.915C1428.73 375.915 1428.87 375.781 1437.93 376.715C1442.07 377.248 1446.47 378.181 1447.8 378.848ZM1486.47 442.181C1488.2 442.715 1488.73 443.781 1488.07 445.781C1483.67 461.115 1483.13 467.115 1482.6 510.581C1482.2 535.115 1481.67 556.715 1481.27 558.448C1480.6 561.915 1469.13 574.448 1459.13 582.715L1453 587.915L1441.13 557.915L1429.4 527.915H1421.13H1412.73V510.581C1412.73 494.181 1412.6 493.248 1410.07 493.248C1407.67 493.248 1407.4 494.315 1407.13 510.181L1406.73 527.248H1398.73H1390.73L1391 508.048C1391.4 478.448 1394.73 461.648 1401.8 454.181C1403.67 452.181 1410.2 448.048 1416.2 444.981L1427.13 439.381L1432.73 444.448C1442.87 453.648 1452.47 455.515 1463 450.448C1466.2 448.848 1470.33 445.648 1472.2 443.248C1475.27 439.115 1475.8 438.848 1479.8 440.181C1482.2 440.848 1485.13 441.781 1486.47 442.181ZM1500.47 448.448C1505.4 450.981 1509.53 455.648 1511.93 461.381C1515.53 470.048 1519 501.115 1522.73 557.381C1523.53 569.781 1523.4 570.181 1520.47 571.515C1518.73 572.315 1504.87 580.848 1489.53 590.448C1474.2 600.048 1461.53 607.781 1461.27 607.648C1461.13 607.381 1459.67 604.181 1458.07 600.581L1455.27 593.915L1459.67 590.181C1469.53 581.648 1483.67 567.115 1485.4 563.915C1486.6 561.515 1487.27 548.715 1487.8 513.915C1488.33 478.448 1489 465.115 1490.47 458.181C1493.53 445.381 1493.8 444.981 1500.47 448.448ZM1562.2 563.381C1571.53 568.048 1578.07 580.581 1575.4 588.448C1573.4 594.715 1562.87 604.181 1551.4 609.915C1540.87 615.248 1491.93 637.248 1490.6 637.248C1490.2 637.248 1483 632.581 1474.6 626.715L1459.4 616.181L1477.4 604.715C1522.73 575.648 1551.8 559.515 1556.07 560.848C1557.53 561.248 1560.33 562.315 1562.2 563.381ZM1371 567.915C1376.2 569.915 1385.8 574.715 1392.33 578.581C1403.4 585.248 1412.73 591.515 1473.13 632.448L1498.07 649.381L1495.27 653.648C1488.73 663.115 1490.2 662.981 1473.67 657.115C1412.07 635.248 1358.73 614.315 1346.47 607.248C1338.73 602.715 1336.2 596.848 1337.13 586.315C1337.93 576.981 1343.67 565.915 1348.6 564.048C1353.13 562.448 1359.27 563.381 1371 567.915ZM1411 648.981C1408.2 651.781 1406.33 654.448 1406.87 654.848C1407.27 655.381 1405.93 656.581 1403.8 657.648C1401.8 658.715 1398.6 661.248 1396.87 663.115L1393.67 666.581H1367.8H1342.07V719.248V771.915L1345.13 772.581C1346.73 772.981 1398.47 773.115 1460.07 772.981L1572.07 772.581L1572.47 719.515L1572.73 666.581H1543.67H1514.47L1509 659.248C1505.4 654.581 1503.8 651.115 1504.33 649.781C1504.87 648.315 1504.2 646.848 1502.73 645.781C1500.6 644.181 1507.8 643.915 1549.8 643.915H1599.4V721.915V799.915H1459.4H1319.4V721.915V643.915H1367.67H1415.93L1411 648.981ZM1436.2 649.515C1442.73 651.781 1448.6 654.048 1449.13 654.581C1449.67 655.115 1445.67 657.381 1440.33 659.781L1430.33 664.181L1422.87 659.115C1418.73 656.448 1415.4 653.915 1415.4 653.515C1415.4 652.315 1422.47 645.248 1423.53 645.248C1424.07 645.248 1429.8 647.115 1436.2 649.515ZM1472.2 662.581L1482.73 666.448H1461.4L1440.07 666.315L1448.07 662.581C1452.47 660.448 1457.27 658.715 1458.87 658.715C1460.33 658.581 1466.33 660.315 1472.2 662.581ZM1506.2 664.848L1510.47 670.981L1506.33 683.781C1501.67 697.781 1496.73 707.115 1495.67 704.048C1495.27 702.981 1495.8 695.381 1496.73 687.115C1498.2 673.915 1498.07 671.781 1496.33 669.115C1494.33 666.448 1494.33 665.915 1496.87 662.315C1498.33 660.315 1500.07 658.581 1500.73 658.581C1501.4 658.581 1503.8 661.381 1506.2 664.848ZM1414.73 661.515C1416.6 662.315 1418.07 663.381 1418.07 663.915C1418.07 664.448 1415.13 666.715 1411.4 668.981L1404.73 673.115L1404.6 686.181C1404.47 700.181 1403.53 705.381 1401.13 706.181C1398.73 706.981 1396.47 692.848 1397 681.248C1397.4 670.048 1398.87 667.248 1406.73 662.448C1411.53 659.515 1410.47 659.515 1414.73 661.515ZM1375.4 685.915V699.915H1361.4H1347.4V685.915V671.915H1361.4H1375.4V685.915ZM1391.4 682.848C1391.4 688.981 1391.8 695.248 1392.2 696.848C1393 699.648 1392.6 699.915 1386.87 699.915H1380.73V685.915V671.915H1386.07H1391.4V682.848ZM1439.4 685.915V699.915H1426.07H1412.73V687.248C1412.73 672.181 1412.87 672.048 1428.47 671.915H1439.4V685.915ZM1471.4 685.915V699.915H1458.07H1444.73V685.915V671.915H1458.07H1471.4V685.915ZM1491.93 677.248C1491.8 679.781 1491.4 685.915 1490.87 690.848L1489.8 699.915H1483.27H1476.73V685.915V671.781L1484.47 672.181L1492.07 672.581L1491.93 677.248ZM1535.4 685.915V699.915H1522.07C1510.87 699.915 1508.73 699.515 1508.73 697.781C1508.73 696.715 1510.33 690.448 1512.33 683.781L1515.93 671.915H1525.67H1535.4V685.915ZM1567.4 685.915V699.915H1554.07H1540.73V686.848C1540.73 679.648 1541.13 673.248 1541.67 672.848C1542.07 672.315 1548.07 671.915 1555 671.915H1567.4V685.915ZM1375.4 719.248V733.248H1361.4H1347.4V719.248V705.248H1361.4H1375.4V719.248ZM1439.4 719.248V733.248H1426.07H1412.73V719.248V705.248H1426.07H1439.4V719.248ZM1471.4 719.248V733.248H1458.07H1444.73V719.248V705.248H1458.07H1471.4V719.248ZM1490.6 708.581C1493.27 712.715 1496.33 712.848 1500.33 708.981L1503.4 706.181V719.648V733.248H1490.07H1476.73V719.248V705.248H1482.6C1487.4 705.248 1488.87 705.915 1490.6 708.581ZM1535.4 719.248V733.248H1522.07H1508.73V719.248V705.248H1522.07H1535.4V719.248ZM1567.4 719.248V733.248H1554.07H1540.73V720.181C1540.73 712.981 1541.13 706.581 1541.67 706.181C1542.07 705.648 1548.07 705.248 1555 705.248H1567.4V719.248ZM1375.4 752.581V766.581H1361.4H1347.4V752.581V738.581H1361.4H1375.4V752.581ZM1407.4 752.581V766.581H1394.07H1380.73V752.581V738.581H1394.07H1407.4V752.581ZM1439.4 752.581V766.581H1426.07H1412.73V752.581V738.581H1426.07H1439.4V752.581ZM1471.4 752.581V766.581H1458.07H1444.73V752.581V738.581H1458.07H1471.4V752.581ZM1503.4 752.581V766.581H1490.07H1476.73V752.581V738.581H1490.07H1503.4V752.581ZM1567.4 752.581V766.581H1554.07H1540.73V753.515C1540.73 746.315 1541.13 739.915 1541.67 739.515C1542.07 738.981 1548.07 738.581 1555 738.581H1567.4V752.581Z" fill="black" class="svg-elem-9"></path>
<path d="M538.503 486.928C538.503 539.994 538.503 540.928 541.169 540.928C543.836 540.928 543.836 539.994 543.836 489.594V438.261H576.503C608.236 438.261 609.169 438.128 609.169 435.594C609.169 433.061 608.236 432.928 573.836 432.928H538.503V486.928Z" fill="black" class="svg-elem-10"></path>
<path d="M791.969 459.728C784.636 465.594 778.503 470.928 778.503 471.594C778.503 472.794 802.903 492.661 805.569 493.728C806.636 494.128 808.103 493.594 808.903 492.528C810.236 491.061 808.103 488.928 798.503 481.461C791.969 476.394 786.636 471.994 786.636 471.594C786.636 471.194 791.969 466.794 798.503 461.594C807.569 454.528 809.969 451.994 808.903 450.661C808.103 449.728 807.036 448.928 806.503 448.928C805.969 448.928 799.436 453.728 791.969 459.728Z" fill="black" class="svg-elem-11"></path>
<path d="M839.169 468.928C830.103 487.061 829.436 488.928 831.569 490.128C833.703 491.194 835.169 489.061 843.569 472.128C848.903 461.594 853.169 452.394 853.169 451.728C853.169 451.061 852.236 450.261 851.169 449.728C849.703 449.194 846.636 453.861 839.169 468.928Z" fill="black" class="svg-elem-12"></path>
<path d="M866.103 484.528C865.569 484.928 865.169 486.128 865.169 487.194C865.169 488.661 877.436 488.928 933.169 488.928C1000.24 488.928 1001.17 488.928 1001.17 486.261C1001.17 483.594 1000.24 483.594 934.103 483.594C897.169 483.594 866.503 483.994 866.103 484.528Z" fill="black" class="svg-elem-13"></path>
<path d="M679.836 540.928C679.836 543.594 680.769 543.594 804.503 543.594C928.236 543.594 929.169 543.594 929.169 540.928C929.169 538.261 928.236 538.261 804.503 538.261C680.769 538.261 679.836 538.261 679.836 540.928Z" fill="black" class="svg-elem-14"></path>
<path d="M679.836 603.594C679.836 606.261 680.769 606.261 804.503 606.261C928.236 606.261 929.169 606.261 929.169 603.594C929.169 600.928 928.236 600.928 804.503 600.928C680.769 600.928 679.836 600.928 679.836 603.594Z" fill="black" class="svg-elem-15"></path>
<path d="M292.369 761.861C273.303 777.328 273.969 776.261 274.903 787.861C275.436 795.461 276.769 800.128 279.836 806.528C283.436 813.728 283.836 815.328 282.369 817.328C274.369 827.594 269.569 832.528 265.569 834.528C258.503 837.861 245.969 849.994 239.303 859.994C222.636 885.328 210.636 919.461 199.836 972.394C192.369 1008.26 193.036 1016.39 204.769 1031.86L207.969 1036.26H159.969H111.836V1054.93V1073.59H229.303H346.769L345.969 1076.53C341.703 1090.93 328.369 1170.93 329.569 1174.13C329.969 1175.19 332.236 1176.39 334.636 1176.93L338.903 1177.86L337.969 1188.79C337.569 1194.66 336.769 1202.53 336.369 1206.26L335.703 1212.93L353.436 1224.53C372.236 1236.93 373.169 1237.06 373.169 1227.86C373.169 1221.86 371.036 1217.46 364.636 1209.73C360.236 1204.53 359.836 1203.33 359.836 1195.59C359.836 1189.46 360.503 1186.53 361.969 1184.93C363.169 1183.73 370.636 1162.66 378.503 1138.13C386.369 1113.59 393.303 1093.46 393.836 1093.46C394.503 1093.33 404.636 1110.53 416.369 1131.46C428.236 1152.39 438.503 1169.33 439.303 1169.06C440.103 1168.66 444.236 1173.73 448.369 1180.26L455.836 1191.99L476.236 1185.99C487.303 1182.66 496.769 1179.73 496.903 1179.59C497.169 1179.33 497.036 1177.86 496.503 1176.39C495.169 1172.13 488.236 1169.19 477.836 1168.39C469.169 1167.59 468.369 1167.33 465.569 1163.06C460.769 1155.86 460.236 1152.26 463.836 1149.33C467.436 1146.39 469.969 1152.79 438.503 1083.59C415.836 1033.73 414.369 1029.86 415.303 1024.93C415.836 1021.99 416.369 1016.39 416.369 1012.66C416.503 1006.39 415.969 1005.19 412.103 1001.33C408.369 997.461 406.636 996.794 399.303 996.261L390.769 995.594L412.769 958.261C424.903 937.728 435.569 919.328 436.636 917.194L438.636 913.594H397.569H356.503L339.969 940.394C330.769 955.061 322.503 967.594 321.303 967.994C320.236 968.394 312.369 966.928 303.969 964.794C285.569 960.128 286.236 961.861 294.503 938.928C300.903 921.194 312.236 882.661 315.169 868.528C317.836 855.861 315.703 847.994 307.169 837.728L303.569 833.594L306.503 829.461L309.436 825.328L313.703 829.461C316.103 831.728 319.169 833.594 320.636 833.594C335.703 833.594 336.369 797.194 321.703 777.861C318.636 773.994 318.503 773.194 320.103 771.194C327.303 762.928 320.769 753.594 307.969 753.594C303.436 753.594 301.169 754.794 292.369 761.861ZM315.436 778.528C318.903 782.928 323.836 793.328 325.036 799.194C326.236 803.994 326.103 805.194 324.236 806.528C320.769 809.194 315.436 808.528 309.569 804.661C304.236 801.194 303.969 800.794 303.569 793.061C302.903 783.594 303.436 782.261 308.636 778.794C313.303 775.728 313.169 775.728 315.436 778.528ZM304.236 819.061C305.169 820.528 304.636 822.394 302.369 826.128C299.569 830.394 298.636 830.928 295.303 830.261C293.169 829.861 288.903 829.594 285.569 829.594H279.703L284.503 823.728C287.969 819.461 290.503 817.594 293.569 817.194C300.236 816.261 302.769 816.794 304.236 819.061ZM277.569 841.194C269.303 850.394 267.436 856.794 256.636 911.861C251.036 940.661 246.503 965.194 246.503 966.528C246.503 971.461 249.436 978.928 252.636 982.928C254.903 985.461 255.436 986.928 254.236 986.928C250.369 986.928 205.836 979.861 204.903 979.061C204.369 978.661 205.436 971.194 207.303 962.394C214.503 928.394 226.369 893.861 238.236 872.394C249.436 852.261 267.303 836.261 278.636 836.261H282.236L277.569 841.194ZM303.169 842.261C305.569 844.794 308.636 849.728 309.703 853.328C311.836 859.728 311.836 860.128 307.169 878.128C300.903 902.261 288.503 941.728 284.369 950.528C281.303 957.194 281.169 957.861 283.169 961.594C285.703 966.394 288.503 967.328 330.769 976.661L362.503 983.594V987.994C362.503 990.794 361.703 992.661 360.369 993.194C358.103 993.994 284.503 991.328 274.769 989.994C267.969 989.194 262.236 985.461 256.636 978.528C253.169 974.128 252.503 972.261 252.636 966.528C252.769 956.794 271.436 863.728 274.769 855.994C276.236 852.528 280.369 846.928 283.969 843.594C292.236 835.861 296.903 835.594 303.169 842.261ZM426.769 923.194C425.303 925.594 415.569 942.261 405.036 960.261C394.636 978.261 385.836 993.194 385.436 993.594C385.169 993.994 384.369 993.194 383.703 991.861C382.903 990.661 379.303 987.328 375.436 984.394C369.303 979.861 366.236 978.794 348.236 974.928C334.503 971.994 328.236 970.128 328.769 969.061C333.169 961.728 357.836 921.861 358.769 920.528C359.836 919.328 368.636 918.928 394.769 918.928H429.436L426.769 923.194ZM238.236 990.261C254.903 992.794 269.569 995.328 270.769 995.728C271.969 996.128 298.369 997.461 329.436 998.928C360.503 1000.26 387.303 1001.99 389.169 1002.66C391.036 1003.33 394.103 1005.73 396.103 1007.86C400.503 1012.39 460.503 1144.13 458.903 1145.73C455.969 1148.53 440.769 1160.26 439.969 1160.26C439.569 1160.26 424.636 1134.66 407.036 1103.19L374.769 1046.26L325.703 1045.46C248.636 1044.13 217.303 1039.33 208.369 1027.59C200.769 1017.59 198.369 1005.86 201.303 992.261C202.369 986.928 203.303 985.594 205.436 985.594C206.903 985.594 221.703 987.728 238.236 990.261ZM377.836 993.594C378.369 994.394 376.636 994.928 373.969 994.928C368.636 994.928 367.703 993.994 368.769 989.861L369.436 986.928L373.303 989.728C375.436 991.194 377.436 992.928 377.836 993.594ZM407.969 1005.46C411.836 1009.46 413.036 1015.06 410.636 1018.66C409.836 1019.99 408.903 1018.79 407.303 1014.66C405.969 1011.46 403.436 1007.33 401.436 1005.19L397.969 1001.59H401.036C402.636 1001.59 405.836 1003.33 407.969 1005.46ZM386.369 1078.13C387.969 1080.53 389.169 1083.46 389.169 1084.39C389.169 1086.93 361.036 1175.33 359.836 1176.66C358.903 1177.73 337.569 1172.79 335.569 1171.06C333.836 1169.59 348.103 1086.53 351.703 1077.19L353.169 1073.59H368.369H383.569L386.369 1078.13ZM457.569 1160.53C458.636 1162.93 461.036 1166.93 463.036 1169.19C466.503 1173.19 467.436 1173.59 474.903 1173.73C483.303 1173.73 489.303 1175.19 487.036 1176.53C486.369 1176.93 479.569 1179.19 472.103 1181.33L458.236 1185.33L451.703 1175.19L445.036 1164.93L450.103 1160.66C452.903 1158.26 455.303 1156.26 455.436 1156.26C455.703 1156.26 456.636 1158.26 457.569 1160.53ZM351.569 1183.73C354.236 1184.53 354.503 1185.33 354.503 1194.79C354.503 1205.33 355.036 1206.79 362.636 1216.53C364.636 1218.93 366.636 1222.39 367.169 1224.13C368.236 1227.86 369.169 1228.26 352.769 1217.19C341.436 1209.59 340.903 1209.19 341.703 1205.19C341.969 1202.79 342.769 1196.93 343.303 1191.86C344.236 1182.39 344.636 1181.99 351.569 1183.73Z" fill="black" class="svg-elem-16"></path>
<path d="M538.236 791.594C537.036 794.128 537.169 795.461 539.036 798.261C541.436 801.861 543.836 802.394 547.969 800.261C550.903 798.661 551.436 792.394 548.903 789.861C545.969 786.928 539.969 787.994 538.236 791.594Z" fill="black" class="svg-elem-17"></path>
<path d="M570.636 790.128C567.836 793.594 569.303 799.328 573.569 800.794C576.636 801.861 577.703 801.594 580.103 799.194C582.503 796.794 582.769 795.728 581.703 792.661C580.769 789.861 579.436 788.794 576.369 788.528C573.969 788.261 571.569 788.928 570.636 790.128Z" fill="black" class="svg-elem-18"></path>
<path d="M601.436 789.861C597.703 793.594 601.169 801.594 606.503 801.594C611.836 801.594 615.303 793.594 611.569 789.861C610.636 788.928 608.369 788.261 606.503 788.261C604.636 788.261 602.369 788.928 601.436 789.861Z" fill="black" class="svg-elem-19"></path>
<path d="M538.503 822.928C535.303 828.928 541.303 835.194 547.303 832.394C550.903 830.794 551.703 824.661 548.903 821.861C546.236 819.194 540.103 819.861 538.503 822.928Z" fill="black" class="svg-elem-20"></path>
<path d="M570.769 821.861C568.103 824.528 568.903 830.661 571.969 832.394C577.836 835.461 584.369 828.928 581.169 822.928C579.569 819.861 573.436 819.194 570.769 821.861Z" fill="black" class="svg-elem-21"></path>
<path d="M601.436 821.861C597.703 825.594 601.036 833.594 606.369 833.594C609.436 833.594 613.169 829.461 613.169 826.128C613.169 822.528 610.636 820.261 606.503 820.261C604.636 820.261 602.369 820.928 601.436 821.861Z" fill="black" class="svg-elem-22"></path>
<path d="M539.836 853.594C538.369 855.061 537.169 857.194 537.169 858.261C537.169 860.528 541.836 865.594 543.969 865.594C547.836 865.594 550.503 862.661 550.503 858.128C550.503 854.394 549.836 853.328 547.036 852.261C542.636 850.528 542.903 850.528 539.836 853.594Z" fill="black" class="svg-elem-23"></path>
<path d="M573.169 851.861C570.503 852.928 569.169 855.061 569.169 858.261C569.169 864.528 575.436 867.328 579.703 863.061C583.169 859.594 583.169 856.928 579.836 853.594C577.036 850.794 576.503 850.661 573.169 851.861Z" fill="black" class="svg-elem-24"></path>
<path d="M602.769 853.061C598.769 855.861 598.903 860.928 603.169 863.728C606.236 865.728 606.769 865.728 609.836 863.728C614.103 860.928 614.236 855.861 610.236 853.061C608.636 851.861 606.903 850.928 606.503 850.928C606.103 850.928 604.369 851.861 602.769 853.061Z" fill="black" class="svg-elem-25"></path>
<path d="M117.703 892.794C110.236 895.994 109.169 899.194 109.169 915.994C109.169 930.794 109.303 931.194 112.903 934.928C119.969 941.861 135.703 941.861 142.769 934.928C146.503 931.194 146.503 930.928 146.503 915.328C146.503 901.061 146.236 899.061 143.703 896.394C142.236 894.794 139.436 892.928 137.569 892.128C132.903 890.394 122.503 890.794 117.703 892.794ZM137.569 898.928C139.436 900.528 140.769 902.528 140.369 903.461C137.703 910.394 115.036 909.461 116.103 902.394C117.036 896.261 131.303 893.994 137.569 898.928ZM138.769 931.328C137.303 932.661 134.103 933.861 131.703 933.994L127.169 934.261V924.261V914.261L132.769 913.461C135.969 913.061 138.903 912.261 139.436 911.728C140.103 911.194 140.636 914.794 140.903 919.728C141.169 927.194 140.903 929.194 138.769 931.328Z" fill="black" class="svg-elem-26"></path>
<path d="M1347 1000V1084H1395H1443V1103.33V1122.67H1501.67H1560.33V1103.33V1084H1583H1605.67V1000V916H1476.33H1347V1000ZM1600.33 938.667V956H1495.67H1391V938.667V921.333H1495.67H1600.33V938.667ZM1374.2 934.533C1377.13 937.733 1376.6 941.067 1373 943.467C1370.6 945.067 1369.8 944.933 1367.27 943.2C1363.8 940.8 1363.4 935.333 1366.73 933.467C1370.07 931.467 1371.67 931.733 1374.2 934.533ZM1600.33 1020V1078.67H1580.33H1560.33V1060V1041.33H1501.67H1443V1060V1078.67H1397.67H1352.33V1020V961.333H1476.33H1600.33V1020ZM1498.87 1069.47C1506.6 1074 1514.47 1078.53 1516.2 1079.6C1519.27 1081.6 1519 1081.73 1502.2 1091.47C1492.73 1096.93 1484.6 1101.33 1484.07 1101.33C1483.4 1101.33 1483 1092.27 1483 1081.33C1483 1070.27 1483.4 1061.33 1483.93 1061.33C1484.33 1061.33 1491.13 1065.07 1498.87 1069.47Z" fill="black" class="svg-elem-27"></path>
<circle cx="920.5" cy="794.5" r="91.5" fill="black" class="svg-elem-28"></circle>
<mask id="mask0_141_262" style="mask-type:luminance" maskUnits="userSpaceOnUse" x="856" y="743" width="124" height="124">
<path d="M856 743H980V867H856V743Z" fill="white" class="svg-elem-29"></path>
</mask>
<g mask="url(#mask0_141_262)">
<path d="M952.945 816.648C952.945 829.515 942.515 839.945 929.648 839.945C916.782 839.945 906.352 829.515 906.352 816.648C906.352 803.782 916.782 793.352 929.648 793.352C942.515 793.352 952.945 803.782 952.945 816.648Z" stroke="white" stroke-width="3" stroke-miterlimit="10" stroke-linecap="round" stroke-linejoin="round" class="svg-elem-30"></path>
<path d="M977.046 864.046C975.53 865.563 973.071 865.563 971.555 864.046L953.14 845.632C951.624 844.115 951.624 841.657 953.14 840.14C954.657 838.624 957.115 838.624 958.632 840.14L977.046 858.555C978.563 860.072 978.563 862.53 977.046 864.046Z" stroke="white" stroke-width="3" stroke-miterlimit="10" stroke-linecap="round" stroke-linejoin="round" class="svg-elem-31"></path>
<path d="M946.393 833.394L952.945 839.945" stroke="white" stroke-width="3" stroke-miterlimit="10" stroke-linecap="round" stroke-linejoin="round" class="svg-elem-32"></path>
<path d="M956.828 847.711L960.711 843.828" stroke="white" stroke-width="3" stroke-miterlimit="10" stroke-linecap="round" stroke-linejoin="round" class="svg-elem-33"></path>
<path d="M899.678 826.355H863.641C860.424 826.355 857.816 823.748 857.816 820.531V750.641C857.816 747.424 860.424 744.816 863.641 744.816H960.711C963.928 744.816 966.535 747.424 966.535 750.641V820.531C966.535 823.748 963.928 826.355 960.711 826.355H959.862" stroke="white" stroke-width="3" stroke-miterlimit="10" stroke-linecap="round" stroke-linejoin="round" class="svg-elem-34"></path>
<path d="M865.582 752.582H867.523" stroke="white" stroke-width="3" stroke-miterlimit="10" stroke-linecap="round" stroke-linejoin="round" class="svg-elem-35"></path>
<path d="M875.289 752.582H877.23" stroke="white" stroke-width="3" stroke-miterlimit="10" stroke-linecap="round" stroke-linejoin="round" class="svg-elem-36"></path>
<path d="M884.996 752.582H958.769" stroke="white" stroke-width="3" stroke-miterlimit="10" stroke-linecap="round" stroke-linejoin="round" class="svg-elem-37"></path>
<path d="M857.816 760.348H966.535" stroke="white" stroke-width="3" stroke-miterlimit="10" stroke-linecap="round" stroke-linejoin="round" class="svg-elem-38"></path>
<path d="M869.465 770.055L875.289 775.879L869.465 781.703" stroke="white" stroke-width="3" stroke-miterlimit="10" stroke-linecap="round" stroke-linejoin="round" class="svg-elem-39"></path>
<path d="M883.055 771.996H902.469" stroke="white" stroke-width="3" stroke-miterlimit="10" stroke-linecap="round" stroke-linejoin="round" class="svg-elem-40"></path>
<path d="M910.234 771.996H914.117" stroke="white" stroke-width="3" stroke-miterlimit="10" stroke-linecap="round" stroke-linejoin="round" class="svg-elem-41"></path>
<path d="M937.414 779.762H941.297" stroke="white" stroke-width="3" stroke-miterlimit="10" stroke-linecap="round" stroke-linejoin="round" class="svg-elem-42"></path>
<path d="M869.465 789.469H875.289" stroke="white" stroke-width="3" stroke-miterlimit="10" stroke-linecap="round" stroke-linejoin="round" class="svg-elem-43"></path>
<path d="M883.055 789.469H892.762" stroke="white" stroke-width="3" stroke-miterlimit="10" stroke-linecap="round" stroke-linejoin="round" class="svg-elem-44"></path>
<path d="M879.172 797.234H892.762" stroke="white" stroke-width="3" stroke-miterlimit="10" stroke-linecap="round" stroke-linejoin="round" class="svg-elem-45"></path>
<path d="M883.055 812.766H898.586" stroke="white" stroke-width="3" stroke-miterlimit="10" stroke-linecap="round" stroke-linejoin="round" class="svg-elem-46"></path>
<path d="M869.465 812.766H875.289" stroke="white" stroke-width="3" stroke-miterlimit="10" stroke-linecap="round" stroke-linejoin="round" class="svg-elem-47"></path>
<path d="M890.82 805H900.528" stroke="white" stroke-width="3" stroke-miterlimit="10" stroke-linecap="round" stroke-linejoin="round" class="svg-elem-48"></path>
<path d="M869.465 805H883.055" stroke="white" stroke-width="3" stroke-miterlimit="10" stroke-linecap="round" stroke-linejoin="round" class="svg-elem-49"></path>
<path d="M900.527 789.469H914.117" stroke="white" stroke-width="3" stroke-miterlimit="10" stroke-linecap="round" stroke-linejoin="round" class="svg-elem-50"></path>
<path d="M900.527 797.234H904.41" stroke="white" stroke-width="3" stroke-miterlimit="10" stroke-linecap="round" stroke-linejoin="round" class="svg-elem-51"></path>
<path d="M869.465 797.234H871.406" stroke="white" stroke-width="3" stroke-miterlimit="10" stroke-linecap="round" stroke-linejoin="round" class="svg-elem-52"></path>
<path d="M883.055 779.762H914.117" stroke="white" stroke-width="3" stroke-miterlimit="10" stroke-linecap="round" stroke-linejoin="round" class="svg-elem-53"></path>
<path d="M921.883 779.762H929.648" stroke="white" stroke-width="3" stroke-miterlimit="10" stroke-linecap="round" stroke-linejoin="round" class="svg-elem-54"></path>
<path d="M929.648 828.297C926.432 828.297 923.824 825.689 923.824 822.473V816.648C923.824 814.504 925.562 812.766 927.707 812.766H931.59C933.734 812.766 935.472 814.504 935.472 816.648V822.473C935.472 825.689 932.865 828.297 929.648 828.297Z" stroke="white" stroke-width="3" stroke-miterlimit="10" stroke-linecap="round" stroke-linejoin="round" class="svg-elem-55"></path>
<path d="M927.707 805L929.648 806.941L931.59 805" stroke="white" stroke-width="3" stroke-miterlimit="10" stroke-linecap="round" stroke-linejoin="round" class="svg-elem-56"></path>
<path d="M923.824 816.648L919.941 814.707" stroke="white" stroke-width="3" stroke-miterlimit="10" stroke-linecap="round" stroke-linejoin="round" class="svg-elem-57"></path>
<path d="M919.941 826.355L923.824 824.414" stroke="white" stroke-width="3" stroke-miterlimit="10" stroke-linecap="round" stroke-linejoin="round" class="svg-elem-58"></path>
<path d="M923.824 820.531H918" stroke="white" stroke-width="3" stroke-miterlimit="10" stroke-linecap="round" stroke-linejoin="round" class="svg-elem-59"></path>
<path d="M935.473 824.414L939.355 826.355" stroke="white" stroke-width="3" stroke-miterlimit="10" stroke-linecap="round" stroke-linejoin="round" class="svg-elem-60"></path>
<path d="M939.355 814.707L935.473 816.648" stroke="white" stroke-width="3" stroke-miterlimit="10" stroke-linecap="round" stroke-linejoin="round" class="svg-elem-61"></path>
<path d="M935.473 820.531H941.297" stroke="white" stroke-width="3" stroke-miterlimit="10" stroke-linecap="round" stroke-linejoin="round" class="svg-elem-62"></path>
</g>
<path d="M1159.55 944.314C1151.53 936.282 1138.47 936.281 1130.45 944.314C1129.56 945.209 1128.11 945.208 1127.22 944.314C1126.32 943.42 1126.32 941.971 1127.22 941.077C1137.02 931.26 1152.98 931.259 1162.78 941.077C1163.68 941.971 1163.68 943.42 1162.78 944.314C1162.34 944.761 1161.75 944.985 1161.17 944.985C1160.58 944.985 1160 944.761 1159.55 944.314ZM1117.93 931.782C1132.86 916.84 1157.14 916.841 1172.06 931.782C1172.51 932.229 1173.1 932.453 1173.68 932.453C1174.27 932.453 1174.85 932.229 1175.3 931.782C1176.19 930.888 1176.19 929.439 1175.3 928.545C1158.59 911.818 1131.41 911.818 1114.7 928.545C1113.81 929.439 1113.81 930.888 1114.7 931.782C1115.59 932.677 1117.04 932.677 1117.93 931.782ZM1141.34 958.882C1141.34 960.899 1142.98 962.544 1145 962.544C1147.01 962.544 1148.66 960.899 1148.66 958.882C1148.66 956.864 1147.01 955.219 1145 955.219C1142.98 955.219 1141.34 956.864 1141.34 958.882ZM1245.01 1096.59C1232.89 1103.59 1217.53 1099.56 1207.64 1086.78L1188.53 1062.09C1186.28 1059.18 1183.16 1057.65 1179.49 1057.65C1179.49 1057.65 1179.49 1057.65 1179.49 1057.65L1110.49 1057.66C1106.83 1057.66 1103.7 1059.2 1101.46 1062.1V1062.1L1082.36 1086.78C1075.72 1095.36 1066.61 1100 1057.67 1100C1053.3 1100 1048.97 1098.89 1044.99 1096.59C1034.03 1090.25 1030.56 1077.82 1034.68 1059.64L1045.72 1011C1048.21 1000.04 1053.97 989.92 1061.94 982.491C1070.6 974.427 1081.06 970.146 1092.2 970.11H1197.79C1208.31 970.144 1218.76 974.265 1227.2 981.712C1235.61 989.126 1241.68 999.526 1244.28 1011L1255.32 1059.64C1259.44 1077.82 1255.97 1090.25 1245.01 1096.59ZM1250.86 1060.65L1239.82 1012.01C1234.93 990.448 1217.25 974.752 1197.79 974.689H1092.21C1070.16 974.76 1054.37 993.518 1050.18 1012.01L1039.14 1060.65C1035.46 1076.88 1038.12 1087.33 1047.28 1092.63C1059.04 1099.43 1071.84 1092.91 1078.75 1083.97L1097.84 1059.29C1100.94 1055.29 1105.43 1053.08 1110.49 1053.08L1179.49 1053.07H1179.49C1184.55 1053.07 1189.05 1055.28 1192.14 1059.28L1211.25 1083.97C1218.16 1092.91 1230.96 1099.43 1242.72 1092.63C1251.88 1087.33 1254.54 1076.87 1250.86 1060.65ZM1125.2 1009.31V1018.46C1125.2 1022.25 1122.12 1025.33 1118.34 1025.33H1109.11V1034.57C1109.11 1038.36 1106.03 1041.44 1102.25 1041.44H1093.11C1089.32 1041.44 1086.25 1038.36 1086.25 1034.57V1025.33H1077.02C1073.24 1025.33 1070.16 1022.25 1070.16 1018.46V1009.31C1070.16 1005.52 1073.24 1002.44 1077.02 1002.44H1086.25V993.202C1086.25 989.415 1089.32 986.335 1093.11 986.335H1102.25C1106.03 986.335 1109.11 989.415 1109.11 993.202V1002.44H1118.34C1122.12 1002.44 1125.2 1005.52 1125.2 1009.31ZM1120.62 1009.31C1120.62 1008.05 1119.6 1007.02 1118.34 1007.02H1106.82C1105.56 1007.02 1104.54 1005.99 1104.54 1004.73V993.202C1104.54 991.94 1103.51 990.913 1102.25 990.913H1093.11C1091.85 990.913 1090.82 991.94 1090.82 993.202V1004.73C1090.82 1005.99 1089.8 1007.02 1088.53 1007.02H1077.02C1075.76 1007.02 1074.73 1008.05 1074.73 1009.31V1018.46C1074.73 1019.73 1075.76 1020.75 1077.02 1020.75H1088.53C1089.8 1020.75 1090.82 1021.78 1090.82 1023.04V1034.57C1090.82 1035.83 1091.85 1036.86 1093.11 1036.86H1102.25C1103.51 1036.86 1104.54 1035.83 1104.54 1034.57V1023.04C1104.54 1021.78 1105.56 1020.75 1106.82 1020.75H1118.34C1119.6 1020.75 1120.62 1019.73 1120.62 1018.46V1009.31ZM1184.8 1013.89C1184.8 1019.41 1180.32 1023.9 1174.8 1023.9C1169.29 1023.9 1164.8 1019.41 1164.8 1013.89C1164.8 1008.36 1169.29 1003.87 1174.8 1003.87C1180.32 1003.87 1184.8 1008.37 1184.8 1013.89ZM1180.23 1013.89C1180.23 1010.89 1177.8 1008.45 1174.8 1008.45C1171.81 1008.45 1169.37 1010.89 1169.37 1013.89C1169.37 1016.88 1171.81 1019.32 1174.8 1019.32C1177.8 1019.32 1180.23 1016.88 1180.23 1013.89ZM1182.32 996.349C1182.32 990.827 1186.8 986.335 1192.32 986.335C1197.83 986.335 1202.32 990.827 1202.32 996.349C1202.32 1001.87 1197.83 1006.36 1192.32 1006.36C1186.8 1006.36 1182.32 1001.87 1182.32 996.349ZM1186.89 996.349C1186.89 999.346 1189.33 1001.78 1192.32 1001.78C1195.31 1001.78 1197.75 999.346 1197.75 996.349C1197.75 993.352 1195.31 990.913 1192.32 990.913C1189.33 990.913 1186.89 993.352 1186.89 996.349ZM1202.32 1031.42C1202.32 1036.95 1197.83 1041.44 1192.32 1041.44C1186.8 1041.44 1182.32 1036.95 1182.32 1031.42C1182.32 1025.9 1186.8 1021.41 1192.32 1021.41C1197.83 1021.41 1202.32 1025.9 1202.32 1031.42ZM1197.75 1031.42C1197.75 1028.43 1195.31 1025.99 1192.32 1025.99C1189.33 1025.99 1186.89 1028.43 1186.89 1031.42C1186.89 1034.42 1189.33 1036.86 1192.32 1036.86C1195.31 1036.86 1197.75 1034.42 1197.75 1031.42ZM1219.84 1013.89C1219.84 1019.41 1215.35 1023.9 1209.83 1023.9C1204.32 1023.9 1199.83 1019.41 1199.83 1013.89C1199.83 1008.36 1204.32 1003.87 1209.83 1003.87C1215.35 1003.87 1219.84 1008.37 1219.84 1013.89ZM1215.26 1013.89C1215.26 1010.89 1212.83 1008.45 1209.83 1008.45C1206.84 1008.45 1204.41 1010.89 1204.41 1013.89C1204.41 1016.88 1206.84 1019.32 1209.83 1019.32C1212.83 1019.32 1215.26 1016.88 1215.26 1013.89Z" fill="black" class="svg-elem-63"></path>
<path d="M632.194 167.508V109.311C642.245 107.863 650 99.2177 650 88.7742C650 77.3217 640.681 68 629.226 68C617.77 68 608.452 77.3217 608.452 88.7742H466V207.484H555.184C556.727 232.282 577.338 252 602.516 252C628.698 252 650 230.698 650 204.516C650 189.562 643.035 176.219 632.194 167.508ZM629.226 73.9355C637.408 73.9355 644.065 80.5921 644.065 88.7742C644.065 96.9563 637.408 103.613 629.226 103.613C621.044 103.613 614.387 96.9563 614.387 88.7742C614.387 80.5921 621.044 73.9355 629.226 73.9355ZM471.935 94.7097H609.327C610.036 97.0779 611.164 99.2592 612.612 101.194L594.462 119.345C593.298 118.787 592.016 118.452 590.645 118.452C589.274 118.452 587.992 118.787 586.832 119.345L580.852 113.365C581.407 112.202 581.742 110.919 581.742 109.548C581.742 104.64 577.747 100.645 572.839 100.645C567.93 100.645 563.935 104.64 563.935 109.548C563.935 110.919 564.271 112.202 564.829 113.362L549.946 128.245C548.782 127.69 547.5 127.355 546.129 127.355C541.22 127.355 537.226 131.349 537.226 136.258C537.226 141.167 541.22 145.161 546.129 145.161C551.038 145.161 555.032 141.167 555.032 136.258C555.032 134.887 554.697 133.605 554.139 132.445L569.022 117.561C570.186 118.116 571.468 118.452 572.839 118.452C574.21 118.452 575.492 118.116 576.652 117.558L582.632 123.538C582.077 124.702 581.742 125.984 581.742 127.355C581.742 132.263 585.737 136.258 590.645 136.258C595.554 136.258 599.548 132.263 599.548 127.355C599.548 125.984 599.213 124.702 598.655 123.541L616.809 105.391C619.524 107.426 622.747 108.806 626.258 109.314V163.46C619.263 159.398 611.17 157.032 602.516 157.032C588.33 157.032 575.611 163.318 566.903 173.215V160H549.097V195.613H555.899C555.531 197.551 555.308 199.536 555.184 201.548H471.935V94.7097ZM590.645 124.387C592.28 124.387 593.613 125.717 593.613 127.355C593.613 128.993 592.28 130.323 590.645 130.323C589.01 130.323 587.677 128.993 587.677 127.355C587.677 125.717 589.01 124.387 590.645 124.387ZM569.871 109.548C569.871 107.91 571.203 106.581 572.839 106.581C574.474 106.581 575.806 107.91 575.806 109.548C575.806 111.187 574.474 112.516 572.839 112.516C571.203 112.516 569.871 111.187 569.871 109.548ZM549.097 136.258C549.097 137.896 547.764 139.226 546.129 139.226C544.494 139.226 543.161 137.896 543.161 136.258C543.161 134.62 544.494 133.29 546.129 133.29C547.764 133.29 549.097 134.62 549.097 136.258ZM602.516 228.258C589.425 228.258 578.774 217.607 578.774 204.516C578.774 191.425 589.425 180.774 602.516 180.774C615.607 180.774 626.258 191.425 626.258 204.516C626.258 217.607 615.607 228.258 602.516 228.258ZM560.968 181.578C559.546 184.143 558.371 186.852 557.439 189.677H555.032V165.935H560.968V181.578ZM599.548 163.119V174.99C584.573 176.486 572.839 189.155 572.839 204.516C572.839 208.858 573.8 212.974 575.483 216.696L565.188 222.64C562.511 217.156 560.968 211.018 560.968 204.516C560.968 182.608 578.023 164.65 599.548 163.119ZM602.516 246.065C588.229 246.065 575.605 238.814 568.126 227.798L578.463 221.83C583.858 229.303 592.616 234.194 602.516 234.194C612.417 234.194 621.174 229.303 626.57 221.83L636.906 227.798C629.428 238.814 616.803 246.065 602.516 246.065ZM639.844 222.64L629.549 216.696C631.232 212.974 632.194 208.858 632.194 204.516C632.194 189.155 620.459 176.483 605.484 174.99V163.119C627.009 164.65 644.065 182.608 644.065 204.516C644.065 211.018 642.521 217.156 639.844 222.64Z" fill="black" class="svg-elem-64"></path>
<path d="M602.516 186.71C592.696 186.71 584.71 194.696 584.71 204.516C584.71 214.336 592.696 222.323 602.516 222.323C612.336 222.323 620.323 214.336 620.323 204.516C620.323 194.696 612.336 186.71 602.516 186.71ZM602.516 216.387C595.969 216.387 590.645 211.063 590.645 204.516C590.645 197.969 595.969 192.645 602.516 192.645C609.063 192.645 614.387 197.969 614.387 204.516C614.387 211.063 609.063 216.387 602.516 216.387Z" fill="black" class="svg-elem-65"></path>
<path d="M477.871 100.645H483.806V106.581H477.871V100.645Z" fill="black" class="svg-elem-66"></path>
<path d="M489.742 100.645H531.29V106.581H489.742V100.645Z" fill="black" class="svg-elem-67"></path>
<path d="M477.871 112.516H483.806V118.452H477.871V112.516Z" fill="black" class="svg-elem-68"></path>
<path d="M489.742 112.516H531.29V118.452H489.742V112.516Z" fill="black" class="svg-elem-69"></path>
<path d="M477.871 124.387H483.806V130.323H477.871V124.387Z" fill="black" class="svg-elem-70"></path>
<path d="M489.742 124.387H531.29V130.323H489.742V124.387Z" fill="black" class="svg-elem-71"></path>
<path d="M477.871 136.258H483.806V142.194H477.871V136.258Z" fill="black" class="svg-elem-72"></path>
<path d="M489.742 136.258H531.29V142.194H489.742V136.258Z" fill="black" class="svg-elem-73"></path>
<path d="M477.871 195.613H495.677V165.935H477.871V195.613ZM483.806 171.871H489.742V189.677H483.806V171.871Z" fill="black" class="svg-elem-74"></path>
<path d="M501.613 195.613H519.419V171.871H501.613V195.613ZM507.548 177.806H513.484V189.677H507.548V177.806Z" fill="black" class="svg-elem-75"></path>
<path d="M525.355 195.613H543.161V148.129H525.355V195.613ZM531.29 154.065H537.226V189.677H531.29V154.065Z" fill="black" class="svg-elem-76"></path>
<path d="M1565.54 213.244C1565.72 213.309 1565.91 213.316 1566.09 213.264C1566.28 213.212 1566.44 213.103 1566.55 212.954L1577.58 198.239C1577.7 198.09 1577.76 197.906 1577.76 197.716C1577.76 197.527 1577.7 197.343 1577.58 197.194L1567.45 184.626C1569.87 179.49 1571.71 174.096 1572.91 168.547L1588.87 164.832C1589.06 164.789 1589.23 164.687 1589.36 164.54C1589.48 164.394 1589.56 164.211 1589.57 164.019L1590.09 145.647C1590.1 145.455 1590.04 145.267 1589.92 145.114C1589.8 144.96 1589.64 144.852 1589.45 144.805L1573.66 140.307C1572.02 130.529 1568.41 121.188 1563.04 112.85L1571.89 98.7731C1572.01 98.6314 1572.08 98.4513 1572.08 98.2652C1572.08 98.0791 1572.01 97.899 1571.89 97.7573L1559.24 84.3771C1559.11 84.2373 1558.94 84.1444 1558.75 84.1129C1558.56 84.0814 1558.36 84.1131 1558.19 84.203L1543.68 92.3878C1539.16 89.1898 1534.29 86.5032 1529.17 84.3771L1528.42 67.5722C1528.41 67.3791 1528.33 67.1952 1528.2 67.056C1528.06 66.9167 1527.88 66.8318 1527.69 66.8176L1509.7 63.1025C1509.51 63.0607 1509.32 63.0806 1509.14 63.1592C1508.97 63.2378 1508.83 63.3708 1508.74 63.5379L1501.39 78.7465C1495.9 78.6871 1490.42 79.242 1485.05 80.4009L1474.81 66.9917C1474.69 66.8458 1474.53 66.7399 1474.35 66.6881C1474.16 66.6362 1473.97 66.6409 1473.79 66.7015L1456.9 74.0155C1456.73 74.0929 1456.59 74.2211 1456.5 74.3823C1456.4 74.5434 1456.36 74.7297 1456.38 74.9153L1459.08 91.4881C1455.8 93.7116 1452.7 96.1963 1449.82 98.9182C1448.74 99.905 1447.7 100.979 1446.51 102.256L1430.55 97.2348C1430.37 97.1781 1430.17 97.1814 1429.99 97.2442C1429.82 97.307 1429.66 97.4259 1429.56 97.5831L1419.87 113.227C1419.75 113.376 1419.68 113.56 1419.68 113.75C1419.68 113.939 1419.75 114.123 1419.87 114.272L1431.48 126.143C1429.49 131.368 1428.09 136.801 1427.32 142.338L1411.62 147.243C1411.45 147.312 1411.29 147.431 1411.19 147.586C1411.08 147.741 1411.02 147.925 1411.01 148.114L1412.15 166.515C1412.16 166.7 1412.24 166.875 1412.37 167.011C1412.49 167.148 1412.66 167.239 1412.84 167.27L1428.78 170.405C1430.14 175.941 1432.15 181.298 1434.75 186.368L1424.94 199.487C1424.82 199.64 1424.76 199.829 1424.76 200.024C1424.76 200.218 1424.82 200.407 1424.94 200.561L1436.38 215.073C1436.51 215.152 1436.66 215.194 1436.82 215.194C1436.97 215.194 1437.12 215.152 1437.25 215.073L1451.76 208.6C1456.09 212.381 1460.84 215.644 1465.93 218.323L1465.32 234.258C1465.32 234.444 1465.38 234.625 1465.49 234.775C1465.6 234.926 1465.75 235.039 1465.93 235.099L1483.57 240.382C1483.75 240.439 1483.95 240.433 1484.12 240.364C1484.29 240.295 1484.44 240.168 1484.53 240.004L1492.77 226.421C1498.51 226.997 1504.3 226.919 1510.01 226.189L1518.72 239.598C1518.83 239.75 1518.98 239.863 1519.16 239.921C1519.34 239.978 1519.53 239.977 1519.71 239.917L1537.12 234.112C1537.3 234.049 1537.45 233.929 1537.55 233.771C1537.65 233.614 1537.69 233.427 1537.67 233.242L1536.66 217.337C1541.65 214.518 1546.3 211.128 1550.5 207.236L1565.54 213.244ZM1469.76 120.048C1476.25 113.946 1484.4 109.904 1493.18 108.431C1501.97 106.958 1510.99 108.12 1519.11 111.772C1527.24 115.423 1534.1 121.399 1538.83 128.946C1543.56 136.493 1545.95 145.272 1545.69 154.175C1545.44 163.078 1542.55 171.706 1537.4 178.97C1532.24 186.234 1525.05 191.807 1516.73 194.988C1508.41 198.168 1499.34 198.812 1490.65 196.839C1481.96 194.866 1474.06 190.364 1467.93 183.901C1463.84 179.6 1460.64 174.534 1458.52 168.995C1456.39 163.455 1455.38 157.551 1455.53 151.619C1455.69 145.687 1457.02 139.845 1459.44 134.428C1461.86 129.01 1465.33 124.124 1469.64 120.048H1469.76Z" fill="black" class="svg-elem-77"></path>
<path d="M1400.13 229.265C1400.27 229.11 1400.35 228.908 1400.35 228.699C1400.35 228.49 1400.27 228.288 1400.13 228.133L1390.73 219.281C1392.69 215.105 1394.19 210.725 1395.2 206.22L1408.17 205.117C1408.38 205.11 1408.58 205.026 1408.73 204.881C1408.88 204.737 1408.97 204.541 1408.98 204.333L1409.56 185.206C1409.56 184.998 1409.47 184.799 1409.33 184.649C1409.18 184.499 1408.99 184.408 1408.78 184.394L1395.75 182.507C1394.37 174.486 1391.41 166.819 1387.04 159.955L1395.6 149.681C1395.74 149.531 1395.82 149.334 1395.82 149.129C1395.82 148.925 1395.74 148.728 1395.6 148.578L1382.46 134.675C1382.3 134.528 1382.1 134.446 1381.89 134.446C1381.68 134.446 1381.48 134.528 1381.32 134.675L1370.56 142.686C1366.93 140.111 1363.04 137.931 1358.95 136.185L1360.14 122.776C1360.16 122.562 1360.11 122.345 1359.99 122.168C1359.86 121.991 1359.68 121.866 1359.47 121.818L1340.69 117.958C1340.49 117.912 1340.28 117.943 1340.1 118.045C1339.93 118.148 1339.79 118.313 1339.73 118.509L1335.49 131.367C1331.03 131.33 1326.57 131.778 1322.2 132.702L1315.47 121.092C1315.36 120.919 1315.19 120.788 1315 120.72C1314.8 120.651 1314.59 120.65 1314.39 120.715L1296.83 128.319C1296.64 128.397 1296.48 128.544 1296.39 128.732C1296.3 128.92 1296.28 129.135 1296.34 129.335L1300.26 142.222C1297.58 144.067 1295.04 146.104 1292.66 148.317C1291.81 149.129 1290.97 149.942 1290.04 150.987L1277.88 145.182C1277.69 145.094 1277.48 145.078 1277.28 145.137C1277.09 145.196 1276.92 145.326 1276.81 145.501L1266.5 161.755C1266.38 161.928 1266.33 162.145 1266.36 162.357C1266.39 162.569 1266.51 162.759 1266.68 162.887L1277.1 171.072C1275.48 175.327 1274.33 179.745 1273.67 184.249L1260.7 186.512C1260.49 186.548 1260.31 186.66 1260.18 186.827C1260.05 186.993 1259.99 187.202 1260 187.412L1261.11 206.539C1261.12 206.745 1261.2 206.941 1261.35 207.09C1261.49 207.238 1261.68 207.331 1261.89 207.352L1274.86 208.048C1275.97 212.543 1277.59 216.896 1279.68 221.022L1270.54 230.136C1270.39 230.287 1270.31 230.49 1270.31 230.702C1270.31 230.913 1270.39 231.116 1270.54 231.268L1282.44 246.186C1282.59 246.333 1282.79 246.415 1283 246.415C1283.22 246.415 1283.42 246.333 1283.57 246.186L1294.45 239.452C1298.02 242.503 1301.92 245.15 1306.06 247.347L1303.83 259.914C1303.79 260.117 1303.83 260.327 1303.94 260.504C1304.04 260.68 1304.21 260.811 1304.41 260.872L1322.78 266.358C1322.97 266.41 1323.18 266.392 1323.36 266.307C1323.54 266.222 1323.69 266.075 1323.77 265.893L1328.79 254.284C1333.45 254.744 1338.14 254.666 1342.78 254.051L1348.15 265.661C1348.24 265.844 1348.39 265.989 1348.58 266.069C1348.76 266.149 1348.97 266.159 1349.16 266.096L1367.31 260.117C1367.5 260.051 1367.67 259.913 1367.77 259.73C1367.87 259.548 1367.9 259.334 1367.86 259.131L1365.24 246.708C1369.3 244.377 1373.1 241.613 1376.56 238.466L1387.65 244.88C1387.83 244.978 1388.04 245.009 1388.24 244.966C1388.45 244.924 1388.63 244.811 1388.75 244.648L1400.13 229.265ZM1307.6 218.555C1300.98 211.311 1297.48 201.754 1297.84 191.947C1298.21 182.14 1302.41 172.87 1309.55 166.137C1316.69 159.405 1326.19 155.75 1336 155.962C1345.82 156.174 1355.15 160.235 1361.99 167.269L1362.69 168.053C1369.38 175.366 1372.89 185.036 1372.45 194.937C1372.01 204.838 1367.65 214.159 1360.34 220.848C1353.03 227.537 1343.36 231.047 1333.45 230.607C1323.55 230.166 1314.23 225.81 1307.54 218.497L1307.6 218.555Z" stroke="black" stroke-width="3" stroke-miterlimit="10" class="svg-elem-78"></path>
<path d="M1374.3 66.9623C1374.22 67.0533 1374.17 67.1725 1374.17 67.2961C1374.17 67.4197 1374.22 67.5388 1374.3 67.6299L1381.29 76.3371C1381.38 76.4187 1381.49 76.4642 1381.61 76.4642C1381.73 76.4642 1381.85 76.4187 1381.93 76.3371L1388.35 72.3608C1390.42 74.1784 1392.7 75.7467 1395.14 77.0337L1393.83 84.4058C1393.81 84.463 1393.81 84.5231 1393.82 84.5825C1393.82 84.6419 1393.84 84.6992 1393.87 84.751C1393.9 84.8027 1393.94 84.8477 1393.99 84.8832C1394.04 84.9187 1394.09 84.9439 1394.15 84.9572L1404.95 88.208C1405.06 88.2379 1405.19 88.225 1405.29 88.1717C1405.4 88.1183 1405.48 88.0281 1405.53 87.9177L1408.43 81.039C1411.17 81.3581 1413.94 81.3581 1416.67 81.039L1419.81 87.8306C1419.87 87.9327 1419.96 88.0113 1420.07 88.0535C1420.18 88.0957 1420.31 88.099 1420.42 88.0628L1431.07 84.5799C1431.18 84.535 1431.28 84.4526 1431.33 84.3468C1431.39 84.2409 1431.41 84.1182 1431.39 83.9994L1429.88 76.6564C1432.26 75.2899 1434.49 73.6748 1436.53 71.8383L1443.03 75.6115C1443.12 75.6872 1443.23 75.7287 1443.35 75.7287C1443.46 75.7287 1443.58 75.6872 1443.67 75.6115L1450.4 66.585C1450.44 66.5442 1450.48 66.4948 1450.5 66.4399C1450.53 66.385 1450.54 66.3257 1450.54 66.2657C1450.54 66.2058 1450.53 66.1465 1450.5 66.0915C1450.48 66.0366 1450.44 65.9872 1450.4 65.9465L1444.89 60.7221C1446.04 58.2655 1446.92 55.6852 1447.5 53.0307L1455.13 52.3922C1455.26 52.3861 1455.37 52.3359 1455.46 52.2508C1455.55 52.1657 1455.61 52.0512 1455.62 51.9278L1455.94 40.6665C1455.94 40.5501 1455.89 40.4397 1455.81 40.3547C1455.73 40.2697 1455.62 40.2157 1455.51 40.2021L1447.85 39.0702C1447.01 34.3622 1445.25 29.865 1442.68 25.8352L1447.73 19.7981C1447.81 19.7044 1447.85 19.5863 1447.85 19.4644C1447.85 19.3425 1447.81 19.2244 1447.73 19.1306L1440.01 10.8297C1439.92 10.7481 1439.81 10.7026 1439.69 10.7026C1439.57 10.7026 1439.46 10.7481 1439.37 10.8297L1433.01 15.5606C1430.87 14.0374 1428.56 12.7528 1426.14 11.7295L1426.86 3.8349C1426.87 3.70945 1426.84 3.58461 1426.76 3.4833C1426.69 3.38198 1426.58 3.31102 1426.46 3.28345L1415.43 1.01958C1415.37 1.00186 1415.31 0.996083 1415.24 1.00259C1415.18 1.0091 1415.12 1.02777 1415.07 1.05749C1415.02 1.08721 1414.97 1.12738 1414.93 1.17569C1414.89 1.224 1414.86 1.27947 1414.85 1.33884L1412.35 8.8851C1409.73 8.86976 1407.11 9.13243 1404.54 9.66874L1400.65 2.76102C1400.63 2.70581 1400.59 2.65634 1400.55 2.61573C1400.5 2.57513 1400.45 2.5443 1400.39 2.52519C1400.34 2.50608 1400.27 2.4991 1400.21 2.50473C1400.15 2.51035 1400.1 2.52844 1400.04 2.55785L1389.71 6.99853C1389.6 7.04938 1389.51 7.13851 1389.45 7.25011C1389.4 7.3617 1389.39 7.48853 1389.42 7.60804L1391.71 15.1833C1390.14 16.2512 1388.65 17.4451 1387.27 18.7533C1386.78 19.2177 1386.29 19.7111 1385.71 20.3206L1378.57 16.9828C1378.51 16.9534 1378.45 16.9353 1378.39 16.9297C1378.33 16.9241 1378.27 16.931 1378.22 16.9501C1378.16 16.9693 1378.11 17.0001 1378.06 17.0407C1378.02 17.0813 1377.98 17.1308 1377.96 17.186L1372.15 26.7639C1372.08 26.8599 1372.04 26.9772 1372.04 27.0977C1372.04 27.2183 1372.08 27.3355 1372.15 27.4315L1378.28 32.2495C1377.32 34.7486 1376.64 37.3484 1376.27 39.9989L1368.64 41.305C1368.52 41.3258 1368.4 41.3899 1368.33 41.4857C1368.25 41.5815 1368.2 41.7027 1368.2 41.8274L1368.87 53.0598C1368.87 53.1858 1368.92 53.3071 1369.01 53.3988C1369.09 53.4905 1369.21 53.5458 1369.34 53.5532L1376.94 53.9595C1377.62 56.6046 1378.59 59.165 1379.84 61.5928L1374.3 66.9623ZM1427.15 61.1575C1423.99 64.1431 1420 66.1224 1415.71 66.8451C1411.42 67.5678 1407.01 67.0013 1403.04 65.2174C1399.07 63.4335 1395.72 60.5123 1393.41 56.8233C1391.1 53.1344 1389.94 48.8434 1390.07 44.4932C1390.2 40.1431 1391.62 35.9292 1394.14 32.3847C1396.67 28.8401 1400.19 26.1242 1404.26 24.5805C1408.33 23.0368 1412.76 22.7346 1417 23.7123C1421.24 24.6899 1425.1 26.9034 1428.08 30.0727C1432.07 34.313 1434.21 39.9613 1434.03 45.7781C1433.86 51.595 1431.38 57.1052 1427.15 61.0994V61.1575Z" stroke="black" stroke-width="2" stroke-miterlimit="10" class="svg-elem-79"></path>
<path d="M1128.54 558.8C1103.27 558.747 1079.05 548.66 1061.18 530.741C1043.27 512.775 1033.2 488.408 1033.2 463C1033.2 437.592 1043.27 413.225 1061.18 395.259C1079.1 377.293 1103.4 367.2 1128.74 367.2C1137.53 367.215 1146.28 368.42 1154.75 370.782L1128.55 462.945L1128.54 462.972V463V558.8Z" fill="#A6A6A6" stroke="black" stroke-width="0.4" class="svg-elem-80"></path>
<path d="M1184.72 540.244C1168.64 552.279 1149.18 558.781 1129.2 558.8V463.617L1184.72 540.244Z" fill="#3D3D3D" stroke="black" stroke-width="0.4" class="svg-elem-81"></path>
<path d="M1223.8 463.064V463.065C1223.82 478.018 1220.32 492.765 1213.6 506.105C1206.91 519.386 1197.21 530.899 1185.29 539.72L1129.27 463.1L1202.87 403.282C1216.46 420.202 1223.85 441.31 1223.8 463.064Z" fill="black" stroke="black" stroke-width="0.4" class="svg-elem-82"></path>
<path d="M1176.36 340.248C1194.99 345.697 1211.52 356.729 1223.72 371.865L1150.37 431.445L1176.36 340.248Z" fill="white" stroke="black" stroke-width="0.4" class="svg-elem-83"></path>
<path d="M896.176 362.5C896.176 366.06 895.121 369.54 893.143 372.5C891.165 375.46 888.354 377.767 885.065 379.13C881.776 380.492 878.156 380.849 874.665 380.154C871.173 379.46 867.966 377.745 865.448 375.228C862.931 372.711 861.217 369.503 860.522 366.012C859.828 362.52 860.184 358.901 861.546 355.612C862.909 352.323 865.216 349.511 868.176 347.534C871.136 345.556 874.616 344.5 878.176 344.5C882.95 344.5 887.529 346.396 890.904 349.772C894.28 353.148 896.176 357.726 896.176 362.5Z" fill="#EBEBEB" stroke="black" class="svg-elem-84"></path>
<path d="M890.872 357.422C890.872 357.925 890.702 358.416 890.382 358.834C890.062 359.252 889.608 359.577 889.077 359.769C888.546 359.961 887.961 360.01 887.398 359.911C886.834 359.812 886.317 359.568 885.912 359.212C885.507 358.855 885.232 358.401 885.122 357.907C885.012 357.414 885.072 356.903 885.295 356.439C885.517 355.975 885.892 355.58 886.371 355.303C886.851 355.026 887.414 354.879 887.988 354.882C888.755 354.887 889.488 355.156 890.029 355.632C890.569 356.107 890.872 356.751 890.872 357.422Z" fill="#37474F" class="svg-elem-85"></path>
<path d="M873.461 357.422C873.461 357.925 873.29 358.416 872.97 358.834C872.651 359.252 872.196 359.577 871.665 359.769C871.134 359.961 870.549 360.01 869.986 359.911C869.423 359.812 868.906 359.568 868.5 359.212C868.095 358.855 867.82 358.401 867.71 357.907C867.6 357.414 867.66 356.903 867.883 356.439C868.105 355.975 868.48 355.58 868.959 355.303C869.439 355.026 870.002 354.879 870.577 354.882C871.343 354.887 872.077 355.156 872.617 355.632C873.157 356.107 873.461 356.751 873.461 357.422Z" fill="#37474F" class="svg-elem-86"></path>
<path d="M874.915 356.333C875.173 357.354 875.713 358.279 876.471 358.999C877.246 359.624 878.211 359.954 879.199 359.933C880.179 359.972 881.14 359.658 881.912 359.044C882.697 358.343 883.285 357.445 883.617 356.439C883.558 357.565 883.106 358.633 882.342 359.451C881.924 359.876 881.418 360.2 880.86 360.4C880.313 360.598 879.735 360.695 879.155 360.686C878.578 360.68 878.006 360.573 877.465 360.369C876.905 360.159 876.399 359.825 875.982 359.391C875.254 358.548 874.872 357.454 874.915 356.333Z" fill="#37474F" class="svg-elem-87"></path>
<rect x="251" y="639" width="300" height="104" fill="black" class="svg-elem-88"></rect>
<path d="M284.051 705H276.142L288.193 670.091H297.705L309.739 705H301.83L293.085 678.068H292.812L284.051 705ZM283.557 691.278H302.239V697.04H283.557V691.278ZM332.081 680.131C331.945 678.756 331.359 677.687 330.325 676.926C329.291 676.165 327.888 675.784 326.115 675.784C324.911 675.784 323.893 675.955 323.064 676.295C322.234 676.625 321.598 677.085 321.155 677.676C320.723 678.267 320.507 678.938 320.507 679.688C320.484 680.312 320.615 680.858 320.899 681.324C321.195 681.79 321.598 682.193 322.109 682.534C322.621 682.864 323.212 683.153 323.882 683.403C324.553 683.642 325.268 683.847 326.03 684.017L329.166 684.767C330.689 685.108 332.087 685.562 333.359 686.131C334.632 686.699 335.734 687.398 336.666 688.227C337.598 689.057 338.32 690.034 338.831 691.159C339.354 692.284 339.621 693.574 339.632 695.028C339.621 697.165 339.075 699.017 337.996 700.585C336.928 702.142 335.382 703.352 333.359 704.216C331.348 705.068 328.922 705.494 326.081 705.494C323.263 705.494 320.808 705.062 318.717 704.199C316.638 703.335 315.013 702.057 313.842 700.364C312.683 698.659 312.075 696.551 312.018 694.04H319.161C319.24 695.21 319.575 696.187 320.166 696.972C320.768 697.744 321.57 698.33 322.57 698.727C323.581 699.114 324.723 699.307 325.996 699.307C327.246 699.307 328.331 699.125 329.251 698.761C330.183 698.398 330.905 697.892 331.416 697.244C331.928 696.597 332.183 695.852 332.183 695.011C332.183 694.227 331.95 693.568 331.484 693.034C331.03 692.5 330.359 692.045 329.473 691.67C328.598 691.295 327.524 690.955 326.251 690.648L322.45 689.693C319.507 688.977 317.183 687.858 315.479 686.335C313.774 684.812 312.928 682.761 312.939 680.182C312.928 678.068 313.49 676.222 314.626 674.642C315.774 673.062 317.348 671.83 319.348 670.943C321.348 670.057 323.621 669.614 326.166 669.614C328.757 669.614 331.018 670.057 332.95 670.943C334.893 671.83 336.405 673.062 337.484 674.642C338.564 676.222 339.121 678.051 339.155 680.131H332.081ZM343.267 676.176V670.091H371.938V676.176H361.25V705H353.955V676.176H343.267ZM407.145 687.545C407.145 691.352 406.423 694.591 404.98 697.261C403.548 699.932 401.594 701.972 399.116 703.381C396.651 704.778 393.878 705.477 390.798 705.477C387.696 705.477 384.912 704.773 382.446 703.364C379.98 701.955 378.031 699.915 376.599 697.244C375.168 694.574 374.452 691.341 374.452 687.545C374.452 683.739 375.168 680.5 376.599 677.83C378.031 675.159 379.98 673.125 382.446 671.727C384.912 670.318 387.696 669.614 390.798 669.614C393.878 669.614 396.651 670.318 399.116 671.727C401.594 673.125 403.548 675.159 404.98 677.83C406.423 680.5 407.145 683.739 407.145 687.545ZM399.662 687.545C399.662 685.08 399.293 683 398.554 681.307C397.827 679.614 396.798 678.33 395.469 677.455C394.139 676.58 392.582 676.142 390.798 676.142C389.014 676.142 387.457 676.58 386.128 677.455C384.798 678.33 383.764 679.614 383.026 681.307C382.298 683 381.935 685.08 381.935 687.545C381.935 690.011 382.298 692.091 383.026 693.784C383.764 695.477 384.798 696.761 386.128 697.636C387.457 698.511 389.014 698.949 390.798 698.949C392.582 698.949 394.139 698.511 395.469 697.636C396.798 696.761 397.827 695.477 398.554 693.784C399.293 692.091 399.662 690.011 399.662 687.545ZM441.811 670.091V705H435.436L420.249 683.028H419.993V705H412.612V670.091H419.089L434.158 692.045H434.464V670.091H441.811ZM466.847 680.131C466.71 678.756 466.125 677.687 465.091 676.926C464.057 676.165 462.653 675.784 460.881 675.784C459.676 675.784 458.659 675.955 457.83 676.295C457 676.625 456.364 677.085 455.92 677.676C455.489 678.267 455.273 678.938 455.273 679.688C455.25 680.312 455.381 680.858 455.665 681.324C455.96 681.79 456.364 682.193 456.875 682.534C457.386 682.864 457.977 683.153 458.648 683.403C459.318 683.642 460.034 683.847 460.795 684.017L463.932 684.767C465.455 685.108 466.852 685.562 468.125 686.131C469.398 686.699 470.5 687.398 471.432 688.227C472.364 689.057 473.085 690.034 473.597 691.159C474.119 692.284 474.386 693.574 474.398 695.028C474.386 697.165 473.841 699.017 472.761 700.585C471.693 702.142 470.148 703.352 468.125 704.216C466.114 705.068 463.688 705.494 460.847 705.494C458.028 705.494 455.574 705.062 453.483 704.199C451.403 703.335 449.778 702.057 448.608 700.364C447.449 698.659 446.841 696.551 446.784 694.04H453.926C454.006 695.21 454.341 696.187 454.932 696.972C455.534 697.744 456.335 698.33 457.335 698.727C458.347 699.114 459.489 699.307 460.761 699.307C462.011 699.307 463.097 699.125 464.017 698.761C464.949 698.398 465.67 697.892 466.182 697.244C466.693 696.597 466.949 695.852 466.949 695.011C466.949 694.227 466.716 693.568 466.25 693.034C465.795 692.5 465.125 692.045 464.239 691.67C463.364 691.295 462.29 690.955 461.017 690.648L457.216 689.693C454.273 688.977 451.949 687.858 450.244 686.335C448.54 684.812 447.693 682.761 447.705 680.182C447.693 678.068 448.256 676.222 449.392 674.642C450.54 673.062 452.114 671.83 454.114 670.943C456.114 670.057 458.386 669.614 460.932 669.614C463.523 669.614 465.784 670.057 467.716 670.943C469.659 671.83 471.17 673.062 472.25 674.642C473.33 676.222 473.886 678.051 473.92 680.131H466.847ZM477.317 670.091H485.584L493.544 685.125H493.885L501.845 670.091H510.112L497.379 692.659V705H490.05V692.659L477.317 670.091ZM533.081 680.131C532.945 678.756 532.359 677.687 531.325 676.926C530.291 676.165 528.888 675.784 527.115 675.784C525.911 675.784 524.893 675.955 524.064 676.295C523.234 676.625 522.598 677.085 522.155 677.676C521.723 678.267 521.507 678.938 521.507 679.688C521.484 680.312 521.615 680.858 521.899 681.324C522.195 681.79 522.598 682.193 523.109 682.534C523.621 682.864 524.212 683.153 524.882 683.403C525.553 683.642 526.268 683.847 527.03 684.017L530.166 684.767C531.689 685.108 533.087 685.562 534.359 686.131C535.632 686.699 536.734 687.398 537.666 688.227C538.598 689.057 539.32 690.034 539.831 691.159C540.354 692.284 540.621 693.574 540.632 695.028C540.621 697.165 540.075 699.017 538.996 700.585C537.928 702.142 536.382 703.352 534.359 704.216C532.348 705.068 529.922 705.494 527.081 705.494C524.263 705.494 521.808 705.062 519.717 704.199C517.638 703.335 516.013 702.057 514.842 700.364C513.683 698.659 513.075 696.551 513.018 694.04H520.161C520.24 695.21 520.575 696.187 521.166 696.972C521.768 697.744 522.57 698.33 523.57 698.727C524.581 699.114 525.723 699.307 526.996 699.307C528.246 699.307 529.331 699.125 530.251 698.761C531.183 698.398 531.905 697.892 532.416 697.244C532.928 696.597 533.183 695.852 533.183 695.011C533.183 694.227 532.95 693.568 532.484 693.034C532.03 692.5 531.359 692.045 530.473 691.67C529.598 691.295 528.524 690.955 527.251 690.648L523.45 689.693C520.507 688.977 518.183 687.858 516.479 686.335C514.774 684.812 513.928 682.761 513.939 680.182C513.928 678.068 514.49 676.222 515.626 674.642C516.774 673.062 518.348 671.83 520.348 670.943C522.348 670.057 524.621 669.614 527.166 669.614C529.757 669.614 532.018 670.057 533.95 670.943C535.893 671.83 537.405 673.062 538.484 674.642C539.564 676.222 540.121 678.051 540.155 680.131H533.081Z" fill="white" class="svg-elem-89"></path>
</svg>
